<svg width="100%" height="100%" viewBox="0 0 300 300" version="1.1" xmlns="http://www.w3.org/2000/svg" xmlns:xlink="http://www.w3.org/1999/xlink" xml:space="preserve" xmlns:serif="http://www.serif.com/" style="fill-rule:evenodd;clip-rule:evenodd;stroke-linejoin:round;stroke-miterlimit:2;">
    <g transform="matrix(29.8274,0,0,29.8274,-4493.36,-4229.51)">
            <path d="M151.036,142.184L151.036,143.06L159.016,143.06C158.428,144.188 157.516,145.232 156.268,146.216L156.928,146.876C157.672,146.288 158.332,145.628 158.908,144.896C159.4,144.248 159.868,143.492 160.312,142.628L159.82,142.184L151.036,142.184ZM154.852,144.284L154.852,145.928C154.852,147.152 154.624,148.136 154.18,148.88C153.724,149.624 152.98,150.236 151.972,150.728L152.56,151.472C153.7,150.92 154.528,150.176 155.056,149.228C155.536,148.34 155.788,147.248 155.788,145.928L155.788,144.284L154.852,144.284Z" fill="currentColor" />
        </g>
</svg>
