<svg width="100%" height="100%" viewBox="0 0 300 300" version="1.1" xmlns="http://www.w3.org/2000/svg" xmlns:xlink="http://www.w3.org/1999/xlink" xml:space="preserve" xmlns:serif="http://www.serif.com/" style="fill-rule:evenodd;clip-rule:evenodd;stroke-linejoin:round;stroke-miterlimit:2;">
    <g transform="matrix(3.29633,0,0,3.29633,-380.216,-390.634)">
        <path d="M169.928,122.284L169.928,140.339L123.086,140.339L123.086,147.561L167.42,147.561C161.904,155.886 154.983,164.011 146.557,171.935C138.533,179.458 129.907,185.978 120.879,191.595L125.894,197.813C134.32,192.698 142.946,185.877 151.873,177.251C160.901,168.525 166.919,161.202 169.928,155.184L169.928,194.704C169.928,197.412 168.524,198.816 165.916,198.816C162.907,198.816 158.594,198.315 152.776,197.513L152.776,204.734C158.293,205.336 162.806,205.737 166.317,205.737C173.94,205.737 177.852,202.127 177.852,194.905L177.852,147.561L200.822,147.561L200.822,140.339L177.852,140.339L177.852,122.284L169.928,122.284Z" fill="currentColor" />
    </g>
</svg>
