<svg width="100%" height="100%" viewBox="0 0 300 300" version="1.1" xmlns="http://www.w3.org/2000/svg" xmlns:xlink="http://www.w3.org/1999/xlink" xml:space="preserve" xmlns:serif="http://www.serif.com/" style="fill-rule:evenodd;clip-rule:evenodd;stroke-linejoin:round;stroke-miterlimit:2;">
    <g transform="matrix(1.72102,0,0,1.72102,-192.015,-107.708)">
            <path d="M133.559,105.334L133.559,119.367L190.077,119.367C188.539,133.016 186.232,144.166 183.541,152.624C179.311,166.85 172.583,179.538 163.356,190.303C154.513,200.492 142.786,209.912 128.176,218.37L137.788,229.712C158.55,217.793 174.121,204.337 184.502,188.958C193.729,174.924 199.881,157.623 203.341,137.053C204.11,132.055 204.687,126.096 205.456,119.367L254.284,119.367L252.17,173.194C251.593,187.42 249.671,197.993 246.21,204.529C242.558,211.257 237.175,214.718 230.255,214.718C222.757,214.718 214.683,213.756 205.84,212.218L205.84,226.252C214.491,227.598 222.565,228.366 230.255,228.366C243.327,228.366 252.554,223.945 258.129,215.294C262.935,207.412 265.627,193.956 266.396,175.116L269.279,105.334L206.417,105.334C206.802,94.953 207.186,83.034 207.571,69.77L192.768,69.77C192.576,82.842 192.191,94.568 191.422,105.334L133.559,105.334Z" fill="currentColor" />
        </g>
</svg>
