<svg width="100%" height="100%" viewBox="0 0 300 300" version="1.1" xmlns="http://www.w3.org/2000/svg" xmlns:xlink="http://www.w3.org/1999/xlink" xml:space="preserve" xmlns:serif="http://www.serif.com/" style="fill-rule:evenodd;clip-rule:evenodd;stroke-linejoin:round;stroke-miterlimit:2;">
    <g transform="matrix(2.44056,0,0,2.44056,-226.678,-204.402)">
        <path d="M146.823,86.663C143.237,97.421 137.72,107.904 130.548,118.386C123.1,128.593 114.548,137.696 104.755,145.558L112.203,152.73C122.686,144.454 131.651,135.213 139.099,124.731C141.168,121.696 143.099,118.662 145.03,115.49L191.65,115.49C187.512,134.662 179.236,151.075 166.823,164.868C155.237,177.695 140.479,187.626 122.548,194.522L128.203,203.763C149.168,195.488 166.133,183.212 179.098,167.075C191.788,150.799 200.064,131.489 203.925,109.007L197.305,105.421L150.409,105.421C152.754,100.455 154.961,95.214 156.892,89.973L146.823,86.663Z" fill="currentColor" />
    </g>
</svg>
