<svg width="100%" height="100%" viewBox="0 0 300 300" version="1.1" xmlns="http://www.w3.org/2000/svg" xmlns:xlink="http://www.w3.org/1999/xlink" xml:space="preserve" xmlns:serif="http://www.serif.com/" style="fill-rule:evenodd;clip-rule:evenodd;stroke-linejoin:round;stroke-miterlimit:2;">
    <g transform="matrix(1.50877,0,0,1.50877,-140.222,-63.1663)">
        <path d="M154.301,109.276L209.142,109.276C206.64,133.465 200.593,153.691 191.001,170.373C179.324,190.391 161.182,206.448 136.577,218.333L147.211,231.053C173.694,217.708 193.295,199.983 206.223,178.297C216.858,159.739 223.322,136.801 225.824,109.276L282.125,109.276L282.125,94.054L163.268,94.054C169.94,81.543 175.153,68.823 179.115,56.103L163.476,51.515C158.054,68.614 150.339,85.088 140.122,101.352C128.653,118.868 116.141,132.839 102.587,143.265L113.848,154.943C127.819,144.517 140.956,129.711 153.467,110.527L154.301,109.276Z" fill="currentColor" />
    </g>
</svg>
