<svg width="100%" height="100%" viewBox="0 0 300 300" version="1.1" xmlns="http://www.w3.org/2000/svg" xmlns:xlink="http://www.w3.org/1999/xlink" xml:space="preserve" xmlns:serif="http://www.serif.com/" style="fill-rule:evenodd;clip-rule:evenodd;stroke-linejoin:round;stroke-miterlimit:2;">
    <g transform="matrix(1.92316,0,0,1.92316,-158.882,-163.273)">
        <path d="M90.142,128.228L90.142,140.053L121.732,140.053L121.732,178.933L134.368,178.933L134.368,140.053L187.017,140.053L187.017,159.817C187.017,175.531 183.291,188.167 176.163,197.725C168.711,207.445 156.724,215.383 140.038,221.538L146.842,232.068C164.986,225.102 178.431,215.869 186.855,204.205C195.117,192.703 199.329,177.961 199.329,159.979L199.329,140.053L231.081,140.053L231.081,128.228L199.329,128.228L199.329,93.722L187.017,93.722L187.017,128.228L134.368,128.228L134.368,95.666L121.732,95.666L121.732,128.228L90.142,128.228Z" fill="currentColor" />
    </g>
</svg>
