<svg width="100%" height="100%" viewBox="0 0 300 300" version="1.1" xmlns="http://www.w3.org/2000/svg" xmlns:xlink="http://www.w3.org/1999/xlink" xml:space="preserve" xmlns:serif="http://www.serif.com/" style="fill-rule:evenodd;clip-rule:evenodd;stroke-linejoin:round;stroke-miterlimit:2;">
    <g transform="matrix(1.76894,0,0,1.76894,-185.137,-120.065)">
        <path d="M137.22,75.835L131.141,89.131C152.986,94.83 171.031,102.238 185.278,111.356L193.256,99.769C177.679,89.701 159.064,81.723 137.22,75.835ZM250.621,113.065C240.364,136.999 224.788,157.894 203.513,176.13C180.719,195.505 155.075,208.611 126.202,215.83L133.041,229.506C163.813,221.908 191.166,207.472 214.91,186.577C236.755,167.202 253.281,144.597 264.488,118.384L250.621,113.065ZM120.504,119.334L114.425,132.63C134.56,137.949 152.606,145.357 168.752,154.475L176.35,141.938C157.734,131.491 139.119,123.893 120.504,119.334Z" fill="currentColor" />
    </g>
</svg>
