<svg width="100%" height="100%" viewBox="0 0 300 300" version="1.1" xmlns="http://www.w3.org/2000/svg" xmlns:xlink="http://www.w3.org/1999/xlink" xml:space="preserve" xmlns:serif="http://www.serif.com/" style="fill-rule:evenodd;clip-rule:evenodd;stroke-linejoin:round;stroke-miterlimit:2;">
    <g transform="matrix(2.80396,0,0,2.80396,-316.498,-245.926)">
        <path d="M168.34,149.302C174.527,153.464 180.939,158.189 187.464,163.589C196.238,170.676 203.213,177.088 208.388,182.825L215.25,177.088C209.85,171.013 202.538,164.376 193.426,157.064C187.014,151.889 180.489,147.052 173.852,142.552C182.177,131.415 189.489,118.141 195.676,102.841L190.164,99.129L128.966,99.129L128.966,107.341L183.977,107.341C170.927,138.165 148.766,161.114 117.492,176.076L122.892,183.275C141.228,174.051 156.303,162.801 168.115,149.527L168.34,149.302Z" fill="currentColor" />
    </g>
</svg>
