<svg width="100%" height="100%" viewBox="0 0 300 300" version="1.1" xmlns="http://www.w3.org/2000/svg" xmlns:xlink="http://www.w3.org/1999/xlink" xml:space="preserve" xmlns:serif="http://www.serif.com/" style="fill-rule:evenodd;clip-rule:evenodd;stroke-linejoin:round;stroke-miterlimit:2;">
    <g transform="matrix(2.39275,0,0,2.39275,-272.633,-223.006)">
        <path d="M151.679,99.251C151.404,112.311 151.129,124.683 150.991,136.506L119.785,141.043L121.572,150.941L150.854,146.542C150.579,162.214 150.579,176.648 150.579,189.571C150.579,198.919 153.466,205.243 159.377,208.405C164.326,211.154 174.087,212.529 188.384,212.529C199.657,212.529 213.13,211.704 229.077,210.192L229.214,200.156C214.504,201.806 200.894,202.631 188.384,202.631C177.936,202.631 170.788,201.669 167.213,200.019C163.364,198.094 161.439,194.52 161.439,189.158C161.439,175.961 161.439,161.114 161.714,144.892L217.529,136.506C208.73,149.978 198.42,161.664 186.597,171.424L193.746,179.26C209.143,166.475 222.478,150.391 233.476,130.87L226.327,125.646L161.852,134.994L162.402,99.251L151.679,99.251Z" fill="currentColor" />
    </g>
</svg>
