<svg width="100%" height="100%" viewBox="0 0 300 300" version="1.1" xmlns="http://www.w3.org/2000/svg" xmlns:xlink="http://www.w3.org/1999/xlink" xml:space="preserve" xmlns:serif="http://www.serif.com/" style="fill-rule:evenodd;clip-rule:evenodd;stroke-linejoin:round;stroke-miterlimit:2;">
    <g transform="matrix(1.40645,0,0,1.40645,-119.983,-68.8306)">
        <path d="M265.837,59.513C258.074,101.729 242.789,137.636 220.468,167.236C196.691,198.534 165.879,221.097 128.273,235.169L138.705,251.667C178.98,237.11 211.976,212.12 237.694,176.698C260.985,144.43 276.513,106.581 284.519,63.153L265.837,59.513ZM114.686,63.88L99.401,75.284C109.834,87.9 119.538,101.001 128.273,114.83C137.977,130.115 145.499,143.945 150.351,156.318L167.819,148.069C162.724,134.968 154.961,120.653 144.771,104.64C135.551,90.326 125.604,76.739 114.686,63.88Z" fill="currentColor" />
    </g>
</svg>
