<svg width="100%" height="100%" viewBox="0 0 300 300" version="1.1" xmlns="http://www.w3.org/2000/svg" xmlns:xlink="http://www.w3.org/1999/xlink" xml:space="preserve" xmlns:serif="http://www.serif.com/" style="fill-rule:evenodd;clip-rule:evenodd;stroke-linejoin:round;stroke-miterlimit:2;">
    <g transform="matrix(1.54621,0,0,1.54621,-117.79,-96.665)">
        <path d="M161.077,70.655C155.646,86.946 147.5,103.029 136.43,118.903C125.151,134.36 112.201,148.145 97.58,160.26L108.65,171.121C123.689,159.215 136.848,145.221 148.544,129.138C152.513,123.499 156.273,117.859 159.614,112.011L230.63,112.011C226.035,133.315 217.68,152.531 205.983,170.076C200.135,165.899 193.869,161.722 186.976,157.544C176.115,150.86 165.672,145.012 156.064,139.999L146.456,151.696C155.855,156.291 166.298,162.348 177.577,169.659C184.261,174.045 190.736,178.431 196.584,182.609C195.958,183.444 195.331,184.071 194.704,184.906C175.906,206.629 152.304,223.129 123.898,234.408L132.67,248.402C164.418,235.87 190.736,216.236 211.414,189.71C231.048,164.228 243.371,135.195 248.802,102.403L238.776,96.763L167.76,96.763C171.102,89.662 173.818,82.56 176.324,75.459L161.077,70.655Z" fill="currentColor" />
    </g>
</svg>
