<svg width="100%" height="100%" viewBox="0 0 300 300" version="1.1" xmlns="http://www.w3.org/2000/svg" xmlns:xlink="http://www.w3.org/1999/xlink" xml:space="preserve" xmlns:serif="http://www.serif.com/" style="fill-rule:evenodd;clip-rule:evenodd;stroke-linejoin:round;stroke-miterlimit:2;">
    <g transform="matrix(1.92789,0,0,1.92789,-138.869,-128.326)">
        <path d="M192.696,72.792C178.553,78.139 162.686,82.623 145.094,86.245C127.329,89.694 109.22,92.109 90.593,93.489L93.87,105.734C111.634,104.527 128.364,102.457 144.231,99.698L144.231,130.915L79.899,130.915L79.899,143.505L144.231,143.505C143.886,157.131 139.92,169.376 131.986,180.242C124.742,190.073 114.739,198.351 101.803,205.25L110.599,215.943C125.432,208.182 136.815,198.524 144.749,186.796C153.027,174.205 157.339,159.718 157.684,143.505L219.774,143.505L219.774,130.915L157.684,130.915L157.684,96.938C172.689,93.489 186.832,89.349 199.94,84.52L192.696,72.792Z" fill="currentColor" />
    </g>
</svg>
