<svg width="100%" height="100%" viewBox="0 0 300 300" version="1.1" xmlns="http://www.w3.org/2000/svg" xmlns:xlink="http://www.w3.org/1999/xlink" xml:space="preserve" xmlns:serif="http://www.serif.com/" style="fill-rule:evenodd;clip-rule:evenodd;stroke-linejoin:round;stroke-miterlimit:2;">
    <g transform="matrix(1.57771,0,0,1.57771,-138.83,-93.7868)">
        <path d="M162.575,68.897L148.197,77.266C154.206,86.064 160,95.506 165.579,105.592C168.798,111.172 173.948,120.828 181.03,134.347L195.407,125.335C183.82,102.588 172.875,83.918 162.575,68.897ZM250.557,76.408C243.691,113.103 232.103,143.146 215.794,166.536C196.91,193.145 170.944,212.888 137.682,225.549L148.197,240.141C183.39,226.836 211.073,205.377 231.244,175.764C248.626,150.013 260.858,117.824 267.939,79.197L250.557,76.408ZM112.575,85.206L98.198,94.219C104.206,103.017 110.215,112.459 115.794,122.759C120.3,130.485 125.451,139.927 131.03,151.086L145.837,142.287C134.464,119.97 123.305,100.871 112.575,85.206Z" fill="currentColor" />
    </g>
</svg>
