<svg width="100%" height="100%" viewBox="0 0 300 300" version="1.1" xmlns="http://www.w3.org/2000/svg" xmlns:xlink="http://www.w3.org/1999/xlink" xml:space="preserve" xmlns:serif="http://www.serif.com/" style="fill-rule:evenodd;clip-rule:evenodd;stroke-linejoin:round;stroke-miterlimit:2;">
    <g transform="matrix(1.62348,0,0,1.62348,-161.626,-111.439)">
        <path d="M156.431,120.768L147.835,135.246C163.671,143.391 180.638,154.024 198.737,167.597L193.307,173.706C170.458,198.365 142.631,218.273 110.054,233.205L120.913,247.457C156.884,230.716 187.425,207.867 212.311,178.683C212.311,178.457 212.311,178.457 212.537,178.457C231.088,193.388 247.15,208.093 260.95,222.798L273.845,211.034C259.819,195.876 243.078,180.493 223.396,164.883C240.589,141.807 255.521,114.433 268.642,82.987L258.236,74.616L126.795,74.616L126.795,91.131L245.34,91.131C234.934,114.886 222.943,135.925 209.37,154.25C190.819,140.676 173.173,129.364 156.431,120.768Z" fill="currentColor" />
    </g>
</svg>
