<svg width="100%" height="100%" viewBox="0 0 300 300" version="1.1" xmlns="http://www.w3.org/2000/svg" xmlns:xlink="http://www.w3.org/1999/xlink" xml:space="preserve" xmlns:serif="http://www.serif.com/" style="fill-rule:evenodd;clip-rule:evenodd;stroke-linejoin:round;stroke-miterlimit:2;">
    <g transform="matrix(1.43866,0,0,1.43866,-128.969,-87.2135)">
        <path d="M179.065,69.682L179.065,98.924L112.322,98.924L112.322,114.996L235.317,114.996C220.361,135.532 200.718,154.506 176.386,171.917C154.064,187.989 128.617,201.829 100.491,213.659L108.304,228.392C134.644,217.231 158.082,204.73 179.065,190.891L179.065,260.089L196.476,260.089L196.476,178.39C223.263,157.408 244.692,133.969 260.541,107.629L249.38,98.924L196.476,98.924L196.476,69.682L179.065,69.682ZM216.566,174.149L206.744,187.766C215.897,192.23 227.727,198.703 242.013,207.632C254.067,214.775 265.675,222.142 276.613,229.731L287.327,216.115C276.166,208.748 264.559,201.382 252.505,194.016C237.995,185.31 225.941,178.614 216.566,174.149Z" fill="currentColor" />
    </g>
</svg>
