<svg width="100%" height="100%" viewBox="0 0 300 300" version="1.1" xmlns="http://www.w3.org/2000/svg" xmlns:xlink="http://www.w3.org/1999/xlink" xml:space="preserve" xmlns:serif="http://www.serif.com/" style="fill-rule:evenodd;clip-rule:evenodd;stroke-linejoin:round;stroke-miterlimit:2;">
    <g transform="matrix(1.94895,0,0,1.94895,-239.132,-124.525)">
        <path d="M221.195,83.955L210.623,89.552C219.951,103.389 228.969,120.18 237.675,140.081C246.537,160.447 253.067,179.57 257.265,197.294L269.547,194.807C265.194,176.461 258.353,156.716 249.18,135.883C240.163,115.671 230.834,98.414 221.195,83.955ZM167.713,87.531C166.314,107.276 162.427,125.933 156.052,143.656C149.523,161.691 140.816,177.705 129.778,192.008L141.127,197.761C152.321,182.835 161.183,165.889 167.868,147.077C174.243,128.731 178.285,109.453 179.995,88.93L167.713,87.531Z" fill="currentColor" />
    </g>
</svg>
