<svg width="100%" height="100%" viewBox="0 0 300 300" version="1.1" xmlns="http://www.w3.org/2000/svg" xmlns:xlink="http://www.w3.org/1999/xlink" xml:space="preserve" xmlns:serif="http://www.serif.com/" style="fill-rule:evenodd;clip-rule:evenodd;stroke-linejoin:round;stroke-miterlimit:2;">
    <g transform="matrix(1.95663,0,0,1.95663,-223.192,-138.458)">
        <path d="M238.038,104.237C211.32,118.694 180.758,130.589 145.988,139.739C145.988,117.962 146.171,96.917 146.537,76.603L132.445,76.603C131.896,106.799 131.713,142.301 131.713,183.294C131.713,197.385 135.74,206.719 143.792,211.477C151.844,215.869 167.948,218.248 192.47,218.248C202.719,218.248 221.751,217.15 249.567,215.32L249.75,201.594C230.901,203.974 211.503,205.255 191.372,205.255C172.157,205.255 159.53,203.242 153.308,199.581C148.367,196.47 145.988,190.614 145.988,182.196L145.988,153.831C185.699,142.667 219.006,129.857 245.907,115.217L238.038,104.237Z" fill="currentColor" />
    </g>
</svg>
