<svg width="100%" height="100%" viewBox="0 0 300 300" version="1.1" xmlns="http://www.w3.org/2000/svg" xmlns:xlink="http://www.w3.org/1999/xlink" xml:space="preserve" xmlns:serif="http://www.serif.com/" style="fill-rule:evenodd;clip-rule:evenodd;stroke-linejoin:round;stroke-miterlimit:2;">
    <g transform="matrix(1.36393,0,0,1.36393,-139.712,-68.7365)">
        <path d="M188.42,95.196C181.629,95.196 175.056,98.921 168.922,106.588C147.672,132.001 128.174,153.69 110.429,171.216L123.573,183.922C143.29,163.11 162.788,141.202 181.629,118.199C184.258,114.694 186.448,112.941 188.639,112.941C189.954,112.941 191.487,113.599 193.24,115.132C194.992,116.447 197.402,119.076 200.908,123.019C235.741,162.234 269.698,196.41 302.559,225.547L314.39,212.183C282.842,184.142 248.447,149.746 211.204,108.998C205.946,103.521 201.565,99.797 197.84,97.825C194.554,96.073 191.487,95.196 188.42,95.196Z" fill="currentColor" />
    </g>
</svg>
