<svg width="100%" height="100%" viewBox="0 0 300 300" version="1.1" xmlns="http://www.w3.org/2000/svg" xmlns:xlink="http://www.w3.org/1999/xlink" xml:space="preserve" xmlns:serif="http://www.serif.com/" style="fill-rule:evenodd;clip-rule:evenodd;stroke-linejoin:round;stroke-miterlimit:2;">
    <g transform="matrix(2.00268,0,0,2.00268,-216.837,-145.594)">
        <path d="M177.61,82.717L177.61,110.613L118.996,110.613L118.996,121.897L177.61,121.897L177.61,194.146C177.61,198.534 175.415,200.728 171.341,200.728C167.893,200.728 162.094,200.101 153.945,199.004L153.945,210.602C161.937,211.855 167.893,212.482 171.811,212.482C178.393,212.482 183.252,210.915 186.073,207.781C188.58,204.96 189.834,200.728 189.834,195.086L189.834,121.897L248.918,121.897L248.918,110.613L189.834,110.613L189.834,82.717L177.61,82.717ZM216.32,139.607L206.446,146.189C212.715,153.712 218.827,162.488 224.783,172.675C230.425,182.235 235.597,191.952 239.985,201.982L251.112,197.28C246.724,186.937 241.709,176.75 235.753,166.876C229.484,156.533 223.059,147.443 216.32,139.607ZM145.952,140.077C137.959,162.018 127.772,180.511 115.234,195.4L125.735,201.668C138.586,185.996 149.086,166.876 157.236,143.995L145.952,140.077Z" fill="currentColor" />
    </g>
</svg>
