<svg width="100%" height="100%" viewBox="0 0 300 300" version="1.1" xmlns="http://www.w3.org/2000/svg" xmlns:xlink="http://www.w3.org/1999/xlink" xml:space="preserve" xmlns:serif="http://www.serif.com/" style="fill-rule:evenodd;clip-rule:evenodd;stroke-linejoin:round;stroke-miterlimit:2;">
    <g transform="matrix(1.90179,0,0,1.90179,-192.439,-165.421)">
        <path d="M110.152,99.394L110.152,111.807L231.178,111.807C224.282,123.013 216.007,134.736 206.008,147.149C197.388,157.666 188.25,167.492 178.941,176.802C165.493,165.251 152.218,155.252 139.116,146.804L130.841,156.976C143.771,165.424 158.425,176.802 174.631,191.284C190.836,205.766 204.456,219.385 215.662,232.316L226.179,223.523C214.283,210.076 201.87,197.49 188.94,185.767C199.284,175.595 210.145,163.527 221.352,149.563C233.42,134.046 242.902,119.91 249.97,107.324L242.385,99.394L110.152,99.394Z" fill="currentColor" />
    </g>
</svg>
