<svg width="100%" height="100%" viewBox="0 0 300 300" version="1.1" xmlns="http://www.w3.org/2000/svg" xmlns:xlink="http://www.w3.org/1999/xlink" xml:space="preserve" xmlns:serif="http://www.serif.com/" style="fill-rule:evenodd;clip-rule:evenodd;stroke-linejoin:round;stroke-miterlimit:2;">
    <g transform="matrix(2.39899,0,0,2.39899,-268,-262.194)">
        <path d="M132.69,114.549L130.725,125.217C159.501,128.025 188.277,132.516 217.053,138.833L219.72,127.884C189.26,121.708 160.203,117.216 132.69,114.549ZM137.603,153.712L135.498,164.38C159.08,167.469 184.206,172.803 211.017,180.102L213.824,169.153C184.487,161.573 159.08,156.52 137.603,153.712ZM126.795,198.069L124.97,208.878C158.097,212.106 189.821,218.844 219.86,229.091L223.51,218.563C191.225,208.176 159.08,201.298 126.795,198.069Z" fill="currentColor" />
    </g>
</svg>
