<svg width="100%" height="100%" viewBox="0 0 300 300" version="1.1" xmlns="http://www.w3.org/2000/svg" xmlns:xlink="http://www.w3.org/1999/xlink" xml:space="preserve" xmlns:serif="http://www.serif.com/" style="fill-rule:evenodd;clip-rule:evenodd;stroke-linejoin:round;stroke-miterlimit:2;">
    <g transform="matrix(2.1341,0,0,2.1341,-203.587,-198.169)">
        <path d="M186.145,152.512L177.051,159.112C183.652,167.472 190.839,178.326 198.759,191.527L203.159,199.007C183.065,201.794 158.717,203.994 129.969,205.754C142.877,169.379 155.637,135.498 167.958,103.963L156.957,100.296C141.117,141.658 128.063,177.006 117.502,206.341L103.422,206.927L103.715,217.488C146.25,215.728 181.305,212.941 208.586,208.981C211.373,214.114 214.453,219.834 217.68,225.995L227.947,220.421C212.253,190.06 198.319,167.472 186.145,152.512Z" fill="currentColor" />
    </g>
</svg>
