<svg width="100%" height="100%" viewBox="0 0 300 300" version="1.1" xmlns="http://www.w3.org/2000/svg" xmlns:xlink="http://www.w3.org/1999/xlink" xml:space="preserve" xmlns:serif="http://www.serif.com/" style="fill-rule:evenodd;clip-rule:evenodd;stroke-linejoin:round;stroke-miterlimit:2;">
    <g transform="matrix(2.18494,0,0,2.18494,-259.209,-199.456)">
        <path d="M145.764,124.846L140.341,135.536C156.764,142.663 172.258,151.03 186.666,160.326C185.427,162.185 184.342,163.889 183.258,165.593C168.849,186.354 149.947,202.313 126.397,213.468L134.144,223.074C158.469,211.299 178.3,194.411 193.484,172.41C194.568,170.706 195.653,169.002 196.892,167.298C211.146,177.523 225.555,189.453 239.809,203.087L248.175,194.411C233.611,180.002 218.583,167.452 203.089,156.762C211.766,140.649 219.048,121.747 225.245,99.746L213.16,96.803C207.273,117.254 200.456,134.916 192.709,149.79C178.145,140.494 162.497,132.283 145.764,124.846Z" fill="currentColor" />
    </g>
</svg>
