<svg width="100%" height="100%" viewBox="0 0 300 300" version="1.1" xmlns="http://www.w3.org/2000/svg" xmlns:xlink="http://www.w3.org/1999/xlink" xml:space="preserve" xmlns:serif="http://www.serif.com/" style="fill-rule:evenodd;clip-rule:evenodd;stroke-linejoin:round;stroke-miterlimit:2;">
    <g transform="matrix(1.53339,0,0,1.53339,-153.947,-111.612)">
        <path d="M119.098,85.368L119.098,101.917L177.135,101.917L177.135,148.392L110.483,148.392L110.483,164.942L177.135,164.942L177.135,222.526C177.135,234.542 180.309,243.157 187.11,248.371C193.685,253.358 204.794,255.852 220.663,255.852C241.747,255.852 262.831,254.945 283.915,253.585L283.915,236.809C262.604,238.622 241.747,239.529 221.343,239.529C203.66,239.529 194.818,232.955 194.818,219.806L194.818,164.942L285.955,164.942L285.955,148.392L194.818,148.392L194.818,101.917L275.073,101.917L275.073,85.368L119.098,85.368Z" fill="currentColor" />
    </g>
</svg>
