<svg width="100%" height="100%" viewBox="0 0 300 300" version="1.1" xmlns="http://www.w3.org/2000/svg" xmlns:xlink="http://www.w3.org/1999/xlink" xml:space="preserve" xmlns:serif="http://www.serif.com/" style="fill-rule:evenodd;clip-rule:evenodd;stroke-linejoin:round;stroke-miterlimit:2;">
    <g transform="matrix(2.57552,0,0,2.57552,-322.237,-190.94)">
        <path d="M185.812,84.877L185.812,173.648L191.682,176.882C199.948,172.569 208.214,166.58 216.6,158.793C224.267,151.485 230.976,143.578 236.846,135.072L229.418,129.681C219.835,144.057 208.454,155.678 195.276,164.663L195.276,84.877L185.812,84.877ZM151.789,87.512L151.789,124.171C151.789,136.51 150.231,146.094 147.356,152.803C144.122,159.751 138.251,166.46 129.866,172.929L135.855,179.877C145.439,172.809 152.148,165.262 155.862,157.115C159.456,149.089 161.253,138.067 161.253,124.171L161.253,87.512L151.789,87.512Z" fill="currentColor" />
    </g>
</svg>
