<svg width="120" height="128" viewBox="0 0 120 128" fill="none" xmlns="http://www.w3.org/2000/svg">
<path d="M54.8 1.19999C54.4 2.09999 54.05 3.19999 53.75 4.49999C53.55 5.7 53.3 6.85 53 7.94999C52.2 12.05 51.4 17.25 50.6 23.55C49.8 29.85 49.15 36.6 48.65 43.8C48.15 50.9 47.9 57.9 47.9 64.8C47.9 71.2 48.3 77.45 49.1 83.55C50 89.65 51.1 95.5 52.4 101.1C53.8 106.6 55.25 111.7 56.75 116.4L45.95 119.7C44.45 115.2 43.05 110 41.75 104.1C40.45 98.1 39.4 91.85 38.6 85.35C37.8 78.75 37.4 72.3 37.4 66C37.4 60.8 37.55 55.5 37.85 50.1C38.25 44.7 38.7 39.45 39.2 34.35C39.7 29.15 40.15 24.3 40.55 19.8C41.05 15.3 41.5 11.4 41.9 8.09999C42 6.79999 42.1 5.49999 42.2 4.2C42.3 2.9 42.3 1.8 42.2 0.899996L54.8 1.19999ZM30.5 19.8C39.3 19.8 48 19.55 56.6 19.05C65.2 18.55 73.45 17.8 81.35 16.8C89.35 15.8 96.85 14.5 103.85 12.9L104 24C98.6 24.9 92.75 25.75 86.45 26.55C80.25 27.25 73.9 27.9 67.4 28.5C60.9 29 54.5 29.4 48.2 29.7C41.9 30 35.95 30.15 30.35 30.15C28.25 30.15 25.7 30.1 22.7 30C19.7 29.8 16.7 29.65 13.7 29.55C10.7 29.35 8.15 29.2 6.05 29.1L5.75 17.85C7.55 18.15 10 18.45 13.1 18.75C16.2 19.05 19.35 19.3 22.55 19.5C25.75 19.7 28.4 19.8 30.5 19.8ZM93.05 37.35C92.75 37.95 92.4 38.8 92 39.9C91.7 40.9 91.35 41.95 90.95 43.05C90.65 44.05 90.35 45 90.05 45.9C87.05 55.1 83.45 63.55 79.25 71.25C75.05 78.85 70.5 85.65 65.6 91.65C60.7 97.55 55.65 102.5 50.45 106.5C45.55 110.2 40.25 113.3 34.55 115.8C28.85 118.3 23.35 119.55 18.05 119.55C14.85 119.55 11.9 118.85 9.2 117.45C6.5 116.05 4.35 113.95 2.75 111.15C1.15 108.35 0.350001 104.85 0.350001 100.65C0.350001 95.55 1.45 90.5 3.65 85.5C5.85 80.4 8.85 75.6 12.65 71.1C16.55 66.6 20.95 62.6 25.85 59.1C30.85 55.5 36.15 52.6 41.75 50.4C46.65 48.6 51.95 47.15 57.65 46.05C63.45 44.95 68.75 44.4 73.55 44.4C83.05 44.4 91.25 46.05 98.15 49.35C105.05 52.65 110.35 57.15 114.05 62.85C117.85 68.45 119.75 74.75 119.75 81.75C119.75 87.15 118.8 92.3 116.9 97.2C115.1 102.1 112.2 106.6 108.2 110.7C104.3 114.7 99.25 118.15 93.05 121.05C86.85 123.95 79.4 126.1 70.7 127.5L64.25 117.45C73.35 116.55 81.15 114.45 87.65 111.15C94.15 107.85 99.2 103.65 102.8 98.55C106.4 93.45 108.2 87.65 108.2 81.15C108.2 76.25 106.85 71.75 104.15 67.65C101.45 63.55 97.5 60.25 92.3 57.75C87.2 55.15 80.9 53.85 73.4 53.85C67.1 53.85 61.25 54.6 55.85 56.1C50.55 57.6 46 59.2 42.2 60.9C36.6 63.4 31.45 66.75 26.75 70.95C22.15 75.15 18.5 79.7 15.8 84.6C13.1 89.4 11.75 94.1 11.75 98.7C11.75 101.8 12.45 104.15 13.85 105.75C15.35 107.25 17.5 108 20.3 108C24 108 28.15 106.95 32.75 104.85C37.45 102.75 42.25 99.55 47.15 95.25C53.85 89.45 60.05 82.35 65.75 73.95C71.55 65.55 76.15 55.25 79.55 43.05C79.75 42.25 79.95 41.35 80.15 40.35C80.35 39.35 80.55 38.3 80.75 37.2C81.05 36.1 81.2 35.15 81.2 34.35L93.05 37.35Z" fill="currentColor"/>
</svg>
