<svg width="100%" height="100%" viewBox="0 0 120 128" version="1.1" xmlns="http://www.w3.org/2000/svg" xmlns:xlink="http://www.w3.org/1999/xlink" xml:space="preserve" xmlns:serif="http://www.serif.com/" style="fill-rule:evenodd;clip-rule:evenodd;stroke-linejoin:round;stroke-miterlimit:2;">
    <g transform="matrix(10.8664,0,0,10.8664,-4.93664,110.945)">
        <path d="M3.6,-9.42L3.468,-8.568C5.268,-8.424 6.912,-8.148 8.412,-7.752L8.664,-8.58C7.212,-8.976 5.52,-9.252 3.6,-9.42ZM6.864,-6.696C6.264,-6.696 5.424,-6.588 4.344,-6.36C3.576,-6.204 2.76,-6 1.908,-5.76L2.16,-4.92C4.296,-5.544 5.868,-5.856 6.876,-5.856C7.596,-5.856 8.16,-5.676 8.544,-5.304C8.904,-4.968 9.096,-4.488 9.096,-3.864C9.096,-2.856 8.628,-2.016 7.716,-1.368C6.852,-0.744 5.604,-0.312 3.996,-0.072L4.38,0.78C6.216,0.468 7.608,-0.06 8.568,-0.816C9.552,-1.62 10.044,-2.652 10.044,-3.9C10.044,-4.788 9.768,-5.472 9.228,-5.964C8.676,-6.456 7.884,-6.696 6.864,-6.696Z" fill="currentColor" />
    </g>
</svg>
