<svg width="100%" height="100%" viewBox="0 0 300 300" version="1.1" xmlns="http://www.w3.org/2000/svg" xmlns:xlink="http://www.w3.org/1999/xlink" xml:space="preserve" xmlns:serif="http://www.serif.com/" style="fill-rule:evenodd;clip-rule:evenodd;stroke-linejoin:round;stroke-miterlimit:2;">
    <g transform="matrix(28.5448,0,0,28.5448,-3775.21,-3553.02)">
        <path d="M142.076,125.838C140.72,125.922 138.98,125.982 136.844,126.018C136.904,125.574 136.976,125.142 137.06,124.722L136.208,124.53C136.112,125.022 136.028,125.526 135.968,126.03C134.984,126.03 133.94,126.042 132.812,126.042L132.824,126.846C133.904,126.846 134.924,126.834 135.884,126.834C135.824,127.422 135.788,128.022 135.776,128.634C135.224,128.838 134.708,129.126 134.252,129.486C133.172,130.314 132.632,131.286 132.632,132.402C132.632,133.026 132.788,133.506 133.124,133.866C133.448,134.226 133.904,134.418 134.492,134.418C135.992,134.418 137.264,133.602 138.32,131.994C138.836,131.178 139.28,130.23 139.64,129.138C139.94,129.222 140.216,129.342 140.48,129.51C141.176,129.942 141.524,130.554 141.524,131.334C141.524,132.138 141.212,132.786 140.6,133.278C140.012,133.734 139.148,134.034 138.02,134.178L138.32,134.922C139.64,134.742 140.636,134.382 141.308,133.83C142.028,133.23 142.388,132.402 142.388,131.334C142.388,130.326 141.956,129.522 141.104,128.934C140.72,128.67 140.312,128.478 139.868,128.358C139.916,128.142 139.976,127.926 140.036,127.71L139.22,127.53C139.16,127.758 139.1,127.986 139.052,128.202C138.848,128.178 138.644,128.178 138.44,128.178C137.804,128.178 137.204,128.238 136.652,128.37C136.664,127.842 136.7,127.326 136.748,126.822C138.884,126.774 140.672,126.714 142.124,126.63L142.076,125.838ZM138.812,128.982C138.476,129.966 138.068,130.83 137.588,131.574C137.348,131.922 137.108,132.234 136.868,132.498C136.7,131.586 136.628,130.542 136.628,129.366L136.628,129.198C137.18,129.042 137.792,128.97 138.44,128.97C138.56,128.97 138.692,128.97 138.812,128.982ZM135.764,129.522C135.764,130.866 135.884,132.078 136.112,133.134C135.608,133.458 135.068,133.626 134.492,133.626C133.82,133.626 133.484,133.218 133.484,132.402C133.484,131.538 133.928,130.77 134.84,130.086C135.128,129.858 135.428,129.666 135.764,129.522Z" fill="currentColor"/>
    </g>
</svg>
