<svg width="100%" height="100%" viewBox="0 0 300 300" version="1.1" xmlns="http://www.w3.org/2000/svg" xmlns:xlink="http://www.w3.org/1999/xlink" xml:space="preserve" xmlns:serif="http://www.serif.com/" style="fill-rule:evenodd;clip-rule:evenodd;stroke-linejoin:round;stroke-miterlimit:2;">
    <g transform="matrix(28.2188,0,0,28.2188,-4057.37,-3613.7)">
        <path d="M151.954,129.182L151.198,129.746C152.41,131.186 153.082,133.226 153.226,135.89L154.162,135.842C154.018,132.998 153.274,130.778 151.954,129.182ZM144.274,129.134C144.106,130.25 144.034,131.342 144.034,132.422C144.034,133.958 144.262,135.194 144.742,136.142C145.234,137.126 145.906,137.618 146.77,137.618C147.298,137.618 147.754,137.306 148.138,136.694C148.462,136.178 148.726,135.47 148.93,134.558L148.006,134.342C147.91,134.846 147.778,135.314 147.61,135.722C147.346,136.37 147.058,136.694 146.746,136.694C146.266,136.694 145.87,136.322 145.534,135.602C145.162,134.786 144.982,133.73 144.982,132.422C144.982,131.342 145.054,130.274 145.21,129.242L144.274,129.134Z" fill="currentColor"/>
    </g>
</svg>
