<svg width="100%" height="100%" viewBox="0 0 300 300" version="1.1" xmlns="http://www.w3.org/2000/svg" xmlns:xlink="http://www.w3.org/1999/xlink" xml:space="preserve" xmlns:serif="http://www.serif.com/" style="fill-rule:evenodd;clip-rule:evenodd;stroke-linejoin:round;stroke-miterlimit:2;">
    <g transform="matrix(27.9478,0,0,27.9478,-4122.68,-3557.71)">
            <path d="M150.505,127.565L150.373,128.417C152.173,128.561 153.817,128.837 155.317,129.233L155.569,128.405C154.117,128.009 152.425,127.733 150.505,127.565ZM153.769,130.289C153.169,130.289 152.329,130.397 151.249,130.625C150.481,130.781 149.665,130.985 148.813,131.225L149.065,132.065C151.201,131.441 152.773,131.129 153.781,131.129C154.501,131.129 155.065,131.309 155.449,131.681C155.809,132.017 156.001,132.497 156.001,133.121C156.001,134.129 155.533,134.969 154.621,135.617C153.757,136.241 152.509,136.673 150.901,136.913L151.285,137.765C153.121,137.453 154.513,136.925 155.473,136.169C156.457,135.365 156.949,134.333 156.949,133.085C156.949,132.197 156.673,131.513 156.133,131.021C155.581,130.529 154.789,130.289 153.769,130.289Z" fill="currentColor" />
        </g>
</svg>
