<svg width="100%" height="100%" viewBox="0 0 300 300" version="1.1" xmlns="http://www.w3.org/2000/svg" xmlns:xlink="http://www.w3.org/1999/xlink" xml:space="preserve" xmlns:serif="http://www.serif.com/" style="fill-rule:evenodd;clip-rule:evenodd;stroke-linejoin:round;stroke-miterlimit:2;">
    <g transform="matrix(27.9437,0,0,27.9437,-3744.51,-3526.92)">
        <path d="M136.178,126.555L136.118,127.443C136.982,127.491 137.882,127.587 138.842,127.731C139.862,127.863 140.75,128.019 141.494,128.187L141.698,127.347C140.882,127.155 139.97,126.999 138.986,126.855C137.954,126.711 137.018,126.603 136.178,126.555ZM141.422,128.955C139.526,129.207 137.366,129.351 134.942,129.399L134.942,130.275C137.054,130.227 138.866,130.095 140.378,129.879C137.474,132.819 135.434,134.859 134.27,136.011L134.942,136.611L137.678,133.851C137.906,133.623 138.206,133.407 138.59,133.215C138.962,133.011 139.298,132.915 139.586,132.915C139.826,132.915 139.994,133.035 140.09,133.287C140.174,133.491 140.222,133.839 140.222,134.319C140.222,135.087 140.378,135.627 140.702,135.963C141.026,136.299 141.566,136.467 142.334,136.467C143.042,136.467 143.75,136.407 144.47,136.311L144.35,135.447C143.63,135.555 142.97,135.615 142.37,135.615C141.842,135.615 141.506,135.507 141.338,135.291C141.194,135.099 141.11,134.727 141.11,134.175C141.086,133.527 141.014,133.059 140.87,132.759C140.678,132.351 140.366,132.159 139.91,132.159C139.634,132.159 139.334,132.243 139.01,132.435C140.114,131.331 141.086,130.371 141.926,129.579L141.422,128.955Z" fill="currentColor"/>
    </g>
</svg>
