<svg width="100%" height="100%" viewBox="0 0 300 300" version="1.1" xmlns="http://www.w3.org/2000/svg" xmlns:xlink="http://www.w3.org/1999/xlink" xml:space="preserve" xmlns:serif="http://www.serif.com/" style="fill-rule:evenodd;clip-rule:evenodd;stroke-linejoin:round;stroke-miterlimit:2;">
    <g transform="matrix(27.4702,0,0,27.4702,-3818.11,-3322.21)">
        <path d="M147.235,122.295L146.575,122.895C147.451,123.639 148.243,124.515 148.963,125.511L149.659,124.971C148.963,124.011 148.147,123.123 147.235,122.295ZM146.263,123.087C145.255,123.159 144.271,123.219 143.311,123.267C143.299,122.535 143.299,121.851 143.299,121.227L142.387,121.227C142.387,121.863 142.399,122.547 142.399,123.291C141.967,123.291 141.559,123.303 141.151,123.303C140.719,123.303 140.179,123.291 139.543,123.279L139.555,124.131C139.987,124.143 140.527,124.155 141.163,124.155C141.523,124.155 141.943,124.143 142.399,124.131C142.399,124.731 142.411,125.379 142.411,126.051C141.967,126.195 141.547,126.375 141.163,126.603C139.879,127.323 139.243,128.271 139.243,129.423C139.243,130.071 139.495,130.599 140.011,130.983C140.491,131.343 141.115,131.523 141.883,131.523C142.843,131.523 143.323,131.019 143.323,130.023C143.311,128.835 143.311,127.719 143.311,126.675C143.923,126.519 144.583,126.447 145.279,126.447C146.059,126.447 146.695,126.627 147.175,127.011C147.667,127.395 147.919,127.923 147.919,128.571C147.919,129.267 147.667,129.783 147.187,130.143C146.659,130.527 145.819,130.731 144.655,130.731L144.847,131.571C147.499,131.571 148.831,130.563 148.831,128.571C148.831,127.647 148.483,126.915 147.787,126.387C147.139,125.871 146.299,125.619 145.279,125.619C144.583,125.619 143.923,125.679 143.311,125.811L143.311,124.107C144.175,124.071 145.183,124.011 146.311,123.939L146.263,123.087ZM142.411,126.963L142.411,129.903C142.411,130.419 142.195,130.683 141.775,130.683C141.307,130.683 140.923,130.575 140.635,130.359C140.299,130.119 140.143,129.807 140.143,129.423C140.143,128.535 140.695,127.803 141.823,127.227C142.015,127.131 142.207,127.035 142.411,126.963Z" fill="currentColor" />
    </g>
</svg>
