<svg width="100%" height="100%" viewBox="0 0 300 300" version="1.1" xmlns="http://www.w3.org/2000/svg" xmlns:xlink="http://www.w3.org/1999/xlink" xml:space="preserve" xmlns:serif="http://www.serif.com/" style="fill-rule:evenodd;clip-rule:evenodd;stroke-linejoin:round;stroke-miterlimit:2;">
    <g transform="matrix(27.4669,0,0,27.4669,-3966.83,-3968.77)">
        <path d="M148.065,144.902C147.885,145.79 147.681,146.642 147.465,147.482C146.601,147.542 145.665,147.662 144.657,147.83L144.789,148.67C145.689,148.526 146.505,148.418 147.225,148.346C146.553,150.674 145.701,152.762 144.693,154.61L145.533,155.006C146.589,153.086 147.489,150.842 148.209,148.274C148.497,148.25 148.773,148.25 149.037,148.25C150.141,148.25 150.705,148.946 150.705,150.338C150.705,151.214 150.633,151.958 150.501,152.558C150.261,153.566 149.841,154.082 149.229,154.082C148.725,154.082 148.137,153.962 147.489,153.722L147.357,154.574C148.029,154.814 148.665,154.946 149.241,154.946C150.189,154.946 150.861,154.37 151.245,153.242C151.497,152.498 151.629,151.538 151.629,150.338C151.629,149.414 151.413,148.694 150.981,148.19C150.537,147.674 149.901,147.422 149.061,147.422C148.857,147.422 148.653,147.422 148.437,147.434C148.629,146.666 148.809,145.886 148.977,145.082L148.065,144.902ZM152.613,146.51L151.917,147.05C152.529,147.686 153.033,148.43 153.429,149.294C153.753,150.014 154.029,150.89 154.257,151.922L155.109,151.622C154.653,149.462 153.813,147.758 152.613,146.51Z" fill="currentColor" />
    </g>
</svg>
