<svg width="100%" height="100%" viewBox="0 0 300 300" version="1.1" xmlns="http://www.w3.org/2000/svg" xmlns:xlink="http://www.w3.org/1999/xlink" xml:space="preserve" xmlns:serif="http://www.serif.com/" style="fill-rule:evenodd;clip-rule:evenodd;stroke-linejoin:round;stroke-miterlimit:2;">
    <g transform="matrix(27.6804,0,0,27.6804,-3732.31,-3455.86)">
            <path d="M143.956,126.374C142.684,126.542 141.448,126.686 140.272,126.782C140.02,126.266 139.78,125.726 139.54,125.162L138.7,125.51C138.904,125.978 139.108,126.422 139.324,126.854C138.172,126.926 137.056,126.974 135.988,126.974L135.988,127.79C137.212,127.778 138.448,127.73 139.72,127.646C139.96,128.126 140.188,128.57 140.428,128.978C138.796,129.098 137.152,129.158 135.496,129.17L135.496,129.986C137.356,129.974 139.156,129.902 140.896,129.77C141.364,130.514 141.808,131.078 142.24,131.486C141.28,131.03 140.38,130.814 139.54,130.814C138.412,130.814 137.572,131.006 137.008,131.402C136.456,131.774 136.192,132.314 136.192,133.034C136.192,133.79 136.564,134.378 137.332,134.786C138.052,135.17 139.108,135.374 140.476,135.374C141.508,135.374 142.372,135.302 143.056,135.182L142.996,134.366C142.24,134.486 141.4,134.558 140.476,134.558C139.3,134.558 138.424,134.402 137.848,134.09C137.344,133.826 137.104,133.466 137.104,133.034C137.104,132.578 137.308,132.218 137.728,131.966C138.136,131.702 138.748,131.57 139.564,131.57C140.116,131.57 140.716,131.666 141.376,131.87C141.964,132.038 142.552,132.278 143.14,132.59L143.68,131.978C143.056,131.318 142.468,130.55 141.892,129.686C142.948,129.578 143.992,129.446 145.012,129.29L144.856,128.474C143.716,128.642 142.564,128.774 141.4,128.894C141.148,128.474 140.908,128.03 140.668,127.574C141.796,127.478 142.948,127.358 144.112,127.202L143.956,126.374Z" fill="currentColor" />
        </g>
</svg>
