<svg width="100%" height="100%" viewBox="0 0 300 300" version="1.1" xmlns="http://www.w3.org/2000/svg" xmlns:xlink="http://www.w3.org/1999/xlink" xml:space="preserve" xmlns:serif="http://www.serif.com/" style="fill-rule:evenodd;clip-rule:evenodd;stroke-linejoin:round;stroke-miterlimit:2;">
    <g transform="matrix(26.8043,0,0,26.8043,-4544.48,-3913.78)">
        <path d="M177.579,146.383C176.883,147.103 175.959,147.919 174.831,148.843C173.727,149.731 172.815,150.403 172.071,150.883C171.723,151.087 171.555,151.339 171.555,151.627C171.555,151.927 171.759,152.215 172.179,152.479C173.091,153.031 174.099,153.727 175.191,154.555C176.283,155.359 177.243,156.139 178.083,156.883L178.755,156.151C177.939,155.431 177.015,154.687 175.959,153.907C174.867,153.103 173.883,152.443 173.019,151.939C172.815,151.807 172.719,151.699 172.719,151.627C172.719,151.543 172.803,151.447 172.983,151.339C173.823,150.799 174.735,150.127 175.731,149.323C176.667,148.555 177.531,147.787 178.299,147.019L177.579,146.383Z" fill="currentColor" />
    </g>
</svg>
