<svg width="100%" height="100%" viewBox="0 0 300 300" version="1.1" xmlns="http://www.w3.org/2000/svg" xmlns:xlink="http://www.w3.org/1999/xlink" xml:space="preserve" xmlns:serif="http://www.serif.com/" style="fill-rule:evenodd;clip-rule:evenodd;stroke-linejoin:round;stroke-miterlimit:2;">
    <g transform="matrix(27.4823,0,0,27.4823,-4071.48,-3635.71)">
        <path d="M156.091,132.633L155.167,132.729C155.263,133.689 155.347,134.553 155.407,135.309C154.855,135.333 154.303,135.345 153.727,135.345C152.971,135.345 152.179,135.321 151.363,135.285L151.375,136.161C152.179,136.185 152.959,136.209 153.727,136.209C154.327,136.209 154.903,136.197 155.467,136.173C155.491,136.701 155.515,137.169 155.515,137.577C155.515,138.705 155.383,139.593 155.119,140.217C154.771,141.033 154.135,141.669 153.223,142.125L153.787,142.869C154.867,142.317 155.611,141.561 156.019,140.577C156.307,139.845 156.451,138.837 156.451,137.565C156.451,137.181 156.427,136.701 156.391,136.125C157.135,136.065 157.855,135.993 158.551,135.909L158.539,135.045C157.831,135.141 157.099,135.213 156.331,135.261C156.271,134.505 156.187,133.629 156.091,132.633ZM149.191,132.753C148.831,134.421 148.663,136.281 148.663,138.321C148.663,139.881 148.903,141.237 149.395,142.365L150.247,142.053C149.803,140.997 149.587,139.749 149.587,138.321C149.587,136.329 149.755,134.529 150.103,132.897L149.191,132.753Z" fill="currentColor" />
    </g>
</svg>
