<svg width="100%" height="100%" viewBox="0 0 300 300" version="1.1" xmlns="http://www.w3.org/2000/svg" xmlns:xlink="http://www.w3.org/1999/xlink" xml:space="preserve" xmlns:serif="http://www.serif.com/" style="fill-rule:evenodd;clip-rule:evenodd;stroke-linejoin:round;stroke-miterlimit:2;">
    <g transform="matrix(31.9094,0,0,31.9094,-4436.69,-4181.79)">
        <path d="M140.231,131.367L140.111,132.207C141.119,132.387 142.343,132.483 143.795,132.483C144.659,132.483 145.391,132.435 145.967,132.351C145.355,132.687 144.719,133.071 144.059,133.503L144.575,134.187C145.559,133.479 146.567,132.843 147.623,132.267L147.287,131.511C146.351,131.607 145.187,131.655 143.795,131.655C142.427,131.655 141.239,131.559 140.231,131.367ZM140.807,135.507C139.919,136.443 139.487,137.247 139.487,137.907C139.487,139.395 140.963,140.139 143.939,140.139C145.427,140.139 146.783,140.019 147.995,139.791L147.851,138.939C146.651,139.167 145.343,139.287 143.939,139.287C141.587,139.287 140.411,138.807 140.411,137.859C140.411,137.463 140.771,136.863 141.515,136.059L140.807,135.507Z" fill="currentColor" />
    </g>
</svg>
