<svg width="100%" height="100%" viewBox="0 0 300 300" version="1.1" xmlns="http://www.w3.org/2000/svg" xmlns:xlink="http://www.w3.org/1999/xlink" xml:space="preserve" xmlns:serif="http://www.serif.com/" style="fill-rule:evenodd;clip-rule:evenodd;stroke-linejoin:round;stroke-miterlimit:2;">
    <g transform="matrix(26.7773,0,0,26.7773,-3478.59,-3538.28)">
        <path d="M140.304,134.559C138.984,134.739 137.688,134.883 136.44,134.979C136.056,134.223 135.72,133.443 135.432,132.651L134.604,132.963C134.88,133.683 135.18,134.379 135.492,135.039C134.436,135.099 133.416,135.135 132.42,135.135C132.108,135.135 131.52,135.111 130.644,135.075L130.656,135.939C131.184,135.963 131.784,135.975 132.432,135.975C133.584,135.975 134.748,135.939 135.9,135.867C135.912,135.879 135.924,135.903 135.936,135.927C136.488,136.959 137.028,137.775 137.568,138.399C136.632,138.015 135.66,137.835 134.652,137.835C133.62,137.835 132.816,138.051 132.216,138.483C131.616,138.903 131.328,139.479 131.328,140.223C131.328,141.039 131.664,141.675 132.348,142.131C133.032,142.587 134.004,142.827 135.252,142.827C136.476,142.827 137.484,142.755 138.276,142.623L138.168,141.771C137.316,141.903 136.344,141.975 135.252,141.975C134.256,141.975 133.5,141.807 132.996,141.495C132.492,141.183 132.24,140.763 132.24,140.223C132.24,139.767 132.432,139.407 132.816,139.131C133.236,138.807 133.86,138.651 134.7,138.651C135.912,138.651 137.196,138.927 138.54,139.479L139.02,138.855C138.276,138.051 137.58,137.067 136.932,135.915C136.908,135.867 136.896,135.831 136.872,135.807C138.048,135.711 139.212,135.579 140.376,135.411L140.304,134.559Z" fill="currentColor" />
    </g>
</svg>
