<svg width="100%" height="100%" viewBox="0 0 300 300" version="1.1" xmlns="http://www.w3.org/2000/svg" xmlns:xlink="http://www.w3.org/1999/xlink" xml:space="preserve" xmlns:serif="http://www.serif.com/" style="fill-rule:evenodd;clip-rule:evenodd;stroke-linejoin:round;stroke-miterlimit:2;">
    <g transform="matrix(26.3695,0,0,26.3695,-3719.93,-3299.81)">
        <path d="M147.556,125.642L147.592,127.286L141.736,127.37L141.736,128.174L147.604,128.09L147.616,128.402C147.616,128.954 147.652,129.41 147.7,129.794C147.364,129.242 146.848,128.966 146.152,128.966C145.408,128.966 144.82,129.206 144.388,129.686C143.992,130.118 143.8,130.634 143.8,131.234C143.8,131.858 143.992,132.386 144.4,132.818C144.832,133.262 145.408,133.49 146.152,133.49C146.728,133.49 147.196,133.238 147.556,132.734C147.34,133.382 146.956,133.898 146.404,134.294C145.924,134.642 145.252,134.954 144.4,135.23L144.82,136.01C146.212,135.506 147.172,134.93 147.688,134.306C148.24,133.622 148.516,132.602 148.516,131.234C148.516,130.862 148.492,129.842 148.468,128.174L148.468,128.078L151.78,128.03L151.78,127.226L148.456,127.274L148.42,125.642L147.556,125.642ZM146.152,129.746C146.584,129.746 146.944,129.89 147.232,130.19C147.508,130.478 147.652,130.838 147.652,131.27C147.652,131.63 147.508,131.966 147.244,132.254C146.956,132.542 146.584,132.686 146.152,132.686C145.672,132.686 145.3,132.542 145.036,132.266C144.772,132.002 144.64,131.654 144.64,131.234C144.64,130.838 144.76,130.502 145.024,130.226C145.3,129.902 145.672,129.746 146.152,129.746Z" fill="currentColor" />
    </g>
</svg>
