<svg width="100%" height="100%" viewBox="0 0 300 300" version="1.1" xmlns="http://www.w3.org/2000/svg" xmlns:xlink="http://www.w3.org/1999/xlink" xml:space="preserve" xmlns:serif="http://www.serif.com/" style="fill-rule:evenodd;clip-rule:evenodd;stroke-linejoin:round;stroke-miterlimit:2;">
    <g transform="matrix(27.0002,0,0,27.0002,-4022.67,-3584.21)">
        <path d="M157.494,133.425L156.606,133.437C156.642,134.229 156.666,135.213 156.678,136.365L152.49,136.545L152.514,133.797L151.614,133.797L151.59,136.581L149.406,136.677L149.43,137.517L151.578,137.433C151.566,138.813 151.566,139.797 151.566,140.397C151.566,141.405 151.854,142.125 152.442,142.581C152.946,142.977 153.726,143.181 154.782,143.181C156.078,143.181 157.338,143.121 158.562,143.013L158.502,142.161C157.41,142.269 156.174,142.329 154.782,142.329C154.038,142.329 153.474,142.185 153.102,141.921C152.67,141.609 152.466,141.093 152.466,140.397L152.49,137.397L156.678,137.217L156.678,137.289C156.678,138.093 156.654,138.633 156.606,138.921C156.51,139.473 156.282,139.761 155.946,139.761C155.598,139.761 155.118,139.701 154.506,139.581L154.494,140.421C155.022,140.541 155.514,140.613 155.97,140.613C156.642,140.613 157.098,140.313 157.326,139.725C157.482,139.293 157.566,138.465 157.566,137.265L157.566,137.181L159.678,137.085L159.654,136.233L157.566,136.329C157.554,135.249 157.53,134.277 157.494,133.425Z" fill="currentColor" />
    </g>
</svg>
