<svg width="100%" height="100%" viewBox="0 0 300 300" version="1.1" xmlns="http://www.w3.org/2000/svg" xmlns:xlink="http://www.w3.org/1999/xlink" xml:space="preserve" xmlns:serif="http://www.serif.com/" style="fill-rule:evenodd;clip-rule:evenodd;stroke-linejoin:round;stroke-miterlimit:2;">
    <g transform="matrix(28.4621,0,0,28.4621,-3872.93,-3505.45)">
        <path d="M144.494,123.729L138.266,123.921L138.314,124.749L143.306,124.533L138.878,127.401L136.418,127.689L136.55,128.505C138.65,128.217 140.666,127.965 142.586,127.761C141.866,128.025 141.302,128.385 140.882,128.865C140.426,129.345 140.21,129.873 140.21,130.437C140.21,131.325 140.582,132.021 141.35,132.501C142.034,132.921 142.934,133.137 144.05,133.137C144.278,133.137 144.518,133.125 144.782,133.113L145.07,133.089L145.238,132.213C145.118,132.225 144.962,132.237 144.77,132.261C144.506,132.285 144.266,132.297 144.05,132.297C143.162,132.297 142.454,132.129 141.926,131.793C141.386,131.445 141.122,130.977 141.122,130.401C141.122,129.921 141.314,129.477 141.71,129.069C142.118,128.637 142.694,128.289 143.438,128.001C144.182,127.713 145.118,127.557 146.27,127.509L146.186,126.693C143.894,126.885 141.986,127.077 140.474,127.245L144.914,124.437L144.494,123.729Z" fill="currentColor" />
    </g>
</svg>
