<svg width="100%" height="100%" viewBox="0 0 300 300" version="1.1" xmlns="http://www.w3.org/2000/svg" xmlns:xlink="http://www.w3.org/1999/xlink" xml:space="preserve" xmlns:serif="http://www.serif.com/" style="fill-rule:evenodd;clip-rule:evenodd;stroke-linejoin:round;stroke-miterlimit:2;">
    <g transform="matrix(12.7111,0,0,12.7111,-1712.62,-1795.08)">
        <path d="M157.048,149.892C153.245,149.892 149.441,150.05 145.584,150.367L145.69,152.269C149.547,151.926 153.324,151.767 157.048,151.767L157.048,149.892ZM149.309,145.586C147.46,145.824 145.479,146.009 143.313,146.141C143.55,144.794 143.788,143.42 144,142.047L141.966,141.783C141.754,143.288 141.517,144.768 141.252,146.247C139.483,146.3 137.634,146.352 135.679,146.352L135.758,148.228C137.581,148.201 139.298,148.149 140.909,148.096C140.566,149.786 140.196,151.477 139.826,153.115C138.822,157.182 137.713,160.669 136.498,163.601L138.426,164.261C139.641,161.277 140.751,157.711 141.754,153.564C142.177,151.767 142.6,149.892 142.969,147.99C145.505,147.832 147.724,147.647 149.626,147.409L149.309,145.586ZM146.007,156.179C144.95,157.605 144.449,158.952 144.449,160.273C144.449,162.782 146.958,164.05 152.003,164.05C154.063,164.05 155.86,163.892 157.392,163.627L157.339,161.752C155.754,162.069 153.958,162.228 152.003,162.228C150.26,162.228 148.939,162.043 147.988,161.699C146.958,161.329 146.456,160.775 146.456,160.088C146.456,159.243 146.879,158.265 147.724,157.103L146.007,156.179Z" fill="currentColor" />
    </g>
</svg>
