<svg width="100%" height="100%" viewBox="0 0 300 300" version="1.1" xmlns="http://www.w3.org/2000/svg" xmlns:xlink="http://www.w3.org/1999/xlink" xml:space="preserve" xmlns:serif="http://www.serif.com/" style="fill-rule:evenodd;clip-rule:evenodd;stroke-linejoin:round;stroke-miterlimit:2;">
    <g transform="matrix(27.6938,0,0,27.6938,-3746.78,-3691.76)">
        <path d="M145.318,135.375C143.794,135.471 141.97,135.555 139.834,135.603C139.93,135.003 140.014,134.355 140.086,133.683L139.186,133.635C139.126,134.319 139.042,134.979 138.922,135.615C138.01,135.615 137.062,135.627 136.054,135.627L136.054,136.479C136.966,136.479 137.866,136.467 138.742,136.467C138.694,136.635 138.658,136.791 138.61,136.959C138.25,138.231 137.782,139.263 137.182,140.055L137.818,140.631C138.502,140.115 139.222,139.719 139.99,139.443C140.746,139.167 141.478,139.035 142.174,139.035C142.81,139.035 143.314,139.191 143.698,139.527C144.07,139.851 144.262,140.283 144.262,140.823C144.262,141.423 144.022,141.915 143.554,142.287C142.978,142.731 142.114,142.959 140.962,142.959C140.05,142.959 139.222,142.887 138.478,142.755L138.394,143.607C139.114,143.739 139.966,143.811 140.962,143.811C142.402,143.811 143.482,143.511 144.214,142.923C144.85,142.395 145.174,141.687 145.174,140.823C145.174,140.019 144.886,139.371 144.31,138.891C143.758,138.423 143.038,138.195 142.174,138.195C140.962,138.195 139.75,138.579 138.538,139.359C138.934,138.771 139.27,137.955 139.546,136.911C139.582,136.755 139.618,136.599 139.654,136.455C141.706,136.407 143.614,136.335 145.366,136.239L145.318,135.375Z" fill="currentColor" />
    </g>
</svg>
