<svg width="100%" height="100%" viewBox="0 0 300 300" version="1.1" xmlns="http://www.w3.org/2000/svg" xmlns:xlink="http://www.w3.org/1999/xlink" xml:space="preserve" xmlns:serif="http://www.serif.com/" style="fill-rule:evenodd;clip-rule:evenodd;stroke-linejoin:round;stroke-miterlimit:2;">
    <g transform="matrix(26.9661,0,0,26.9661,-4046.87,-3729.05)">
        <path d="M156.727,139.823C155.479,139.823 153.415,140.183 150.535,140.927L150.775,141.791C153.559,141.071 155.539,140.723 156.727,140.723C157.663,140.723 158.407,140.975 158.959,141.491C159.487,141.983 159.751,142.619 159.751,143.399C159.751,144.539 159.307,145.391 158.431,145.955C157.495,146.543 155.959,146.891 153.799,146.987L154.027,147.875C156.307,147.779 157.987,147.371 159.067,146.675C160.171,145.955 160.735,144.851 160.735,143.387C160.735,142.343 160.363,141.491 159.631,140.831C158.887,140.159 157.927,139.823 156.727,139.823Z" fill="currentColor" />
    </g>
</svg>
