<svg width="100%" height="100%" viewBox="0 0 300 300" version="1.1" xmlns="http://www.w3.org/2000/svg" xmlns:xlink="http://www.w3.org/1999/xlink" xml:space="preserve" xmlns:serif="http://www.serif.com/" style="fill-rule:evenodd;clip-rule:evenodd;stroke-linejoin:round;stroke-miterlimit:2;">
    <g transform="matrix(28.4214,0,0,28.4214,-4247.52,-4005.05)">
        <path d="M159.526,141.689C156.946,141.725 153.742,141.929 149.902,142.301L150.022,143.153C152.11,142.937 154.054,142.769 155.83,142.625C155.014,143.081 154.354,143.669 153.838,144.389C153.202,145.229 152.89,146.141 152.89,147.101C152.89,148.217 153.322,149.081 154.186,149.693C155.086,150.341 156.418,150.677 158.17,150.701L158.338,149.873C156.826,149.825 155.686,149.549 154.906,149.045C154.174,148.553 153.814,147.881 153.814,147.041C153.814,146.309 154.042,145.577 154.51,144.857C154.906,144.233 155.41,143.693 156.01,143.237C156.562,142.805 157.03,142.589 157.39,142.589L159.55,142.493L159.526,141.689Z" fill="currentColor" />
    </g>
</svg>
