<svg width="100%" height="100%" viewBox="0 0 300 300" version="1.1" xmlns="http://www.w3.org/2000/svg" xmlns:xlink="http://www.w3.org/1999/xlink" xml:space="preserve" xmlns:serif="http://www.serif.com/" style="fill-rule:evenodd;clip-rule:evenodd;stroke-linejoin:round;stroke-miterlimit:2;">
    <g transform="matrix(27.5048,0,0,27.5048,-3898.61,-3526.43)">
        <path d="M146.423,128.637L145.499,128.661C145.523,129.765 145.595,130.629 145.715,131.265C145.811,131.865 145.979,132.405 146.219,132.897C145.979,132.993 145.763,133.101 145.571,133.209C143.927,134.061 143.111,135.057 143.111,136.209C143.111,137.061 143.483,137.685 144.239,138.093C144.971,138.489 146.111,138.693 147.659,138.693C148.847,138.693 150.059,138.621 151.283,138.489L151.199,137.601C150.023,137.745 148.835,137.829 147.659,137.829C145.259,137.829 144.059,137.277 144.059,136.185C144.059,135.321 144.839,134.517 146.423,133.785C147.479,133.281 149.003,132.777 150.971,132.273L150.635,131.457C149.219,131.829 148.031,132.189 147.083,132.549C146.891,132.165 146.747,131.757 146.663,131.325C146.531,130.701 146.447,129.801 146.423,128.637Z" fill="currentColor" />
    </g>
</svg>
