<svg width="100%" height="100%" viewBox="0 0 300 300" version="1.1" xmlns="http://www.w3.org/2000/svg" xmlns:xlink="http://www.w3.org/1999/xlink" xml:space="preserve" xmlns:serif="http://www.serif.com/" style="fill-rule:evenodd;clip-rule:evenodd;stroke-linejoin:round;stroke-miterlimit:2;">
    <g transform="matrix(1.72179,0,0,1.72179,-156.14,-84.7284)">
        <path d="M204.444,72.866L198.926,85.235C206.918,87.899 215.481,91.705 224.234,96.843C232.988,102.171 240.98,107.88 248.021,113.969L257.345,103.884C249.733,97.223 241.36,91.134 232.227,85.616C222.712,80.097 213.388,75.911 204.444,72.866ZM183.893,82.952C173.427,83.713 162.39,84.474 150.973,85.045C153.256,75.911 155.349,66.777 157.252,57.643L143.171,54.598C141.077,65.255 138.794,75.53 136.13,85.616C124.522,85.996 112.534,86.187 99.975,86.187L99.975,99.317C111.012,99.317 121.858,99.126 132.324,98.936C130.041,106.548 127.567,113.969 124.903,121.2C116.149,145.177 106.064,165.347 94.647,181.712L106.825,189.514C118.623,171.627 128.899,150.695 137.843,126.909C141.268,117.585 144.503,108.07 147.357,98.365C160.487,97.794 173.046,97.033 184.844,96.082L183.893,82.952ZM217.574,114.159L203.302,114.92C204.254,133.949 205.015,149.934 205.396,162.493C197.023,160.21 188.65,159.068 180.658,159.068C170.002,159.068 161.248,161.542 154.588,166.679C146.976,172.198 143.361,179.809 143.361,189.324C143.361,199.029 147.357,206.45 155.73,211.588C162.58,215.774 171.714,218.058 182.751,218.058C194.168,218.058 203.112,215.013 209.582,209.114C216.052,203.025 219.477,194.272 219.858,182.474C229.372,187.421 240.028,194.842 251.826,204.737L260.96,194.272C246.879,182.283 232.988,173.34 219.667,167.631C219.287,154.12 218.716,136.233 217.574,114.159ZM205.586,176.384L205.586,179.429C205.586,187.421 203.493,193.701 199.687,198.268C195.5,202.835 189.982,205.118 182.751,205.118C175.52,205.118 169.811,203.786 165.435,201.503C160.107,198.648 157.633,194.652 157.633,189.324C157.633,184.567 159.536,180.571 163.532,177.336C167.718,173.72 173.427,172.008 180.658,172.008C188.84,172.008 197.213,173.34 205.586,176.384Z" fill="currentColor" />
    </g>
</svg>
