<svg width="100%" height="100%" viewBox="0 0 300 300" version="1.1" xmlns="http://www.w3.org/2000/svg" xmlns:xlink="http://www.w3.org/1999/xlink" xml:space="preserve" xmlns:serif="http://www.serif.com/" style="fill-rule:evenodd;clip-rule:evenodd;stroke-linejoin:round;stroke-miterlimit:2;">
    <g transform="matrix(1.39147,0,0,1.39147,-130.039,-63.1346)">
        <path d="M286.82,78.644C245.649,78.644 204.975,80.132 164.548,83.108L167.524,100.965C204.231,98.237 243.665,96.997 286.076,96.997L286.82,78.644ZM176.701,157.265C166.284,175.122 161.324,190.003 161.324,201.908C161.324,217.037 168.269,227.95 182.157,234.646C195.054,241.094 215.64,244.319 243.665,244.319C256.066,244.319 273.427,243.327 295.997,241.59L295.005,222.989C275.659,224.973 258.546,226.213 243.665,226.213C222.584,226.213 206.959,224.229 197.038,220.509C186.126,216.293 180.669,209.844 180.669,201.164C180.669,191.987 185.134,180.331 194.062,166.194L176.701,157.265ZM120.897,51.61C111.225,88.813 106.513,126.015 106.513,162.721C106.513,197.692 111.721,228.446 122.138,254.735L139.747,248.039C130.074,223.981 125.362,195.46 125.362,162.721C125.362,127.007 129.826,91.541 139.251,56.075L120.897,51.61Z" fill="currentColor" />
    </g>
</svg>
