<svg width="100%" height="100%" viewBox="0 0 300 300" version="1.1" xmlns="http://www.w3.org/2000/svg" xmlns:xlink="http://www.w3.org/1999/xlink" xml:space="preserve" xmlns:serif="http://www.serif.com/" style="fill-rule:evenodd;clip-rule:evenodd;stroke-linejoin:round;stroke-miterlimit:2;">
    <g transform="matrix(1.27423,0,0,1.27423,-100.766,-33.7325)">
        <path d="M141.099,62.402L123.625,62.887C124.11,81.09 125.809,98.807 128.722,115.795C117.072,124.532 107.85,134.483 101.054,145.647C91.346,160.209 86.492,175.499 86.492,192.002C86.492,203.894 88.919,213.602 94.259,220.883C100.569,229.62 110.034,234.231 123.139,234.231C164.883,234.231 193.279,200.496 208.083,133.027C210.51,122.834 212.695,112.398 214.393,101.719C231.868,102.204 245.944,108.029 256.38,119.193C266.573,130.357 271.913,145.404 271.913,164.335C271.913,172.586 270.942,180.353 269.486,187.391C257.108,180.11 244.973,176.712 233.324,176.712C220.461,176.712 210.51,179.867 203.472,186.42C196.919,192.245 193.764,199.526 193.764,208.263C193.764,217.971 197.405,225.494 204.928,231.319C211.966,236.658 221.189,239.571 232.353,239.571C251.769,239.571 266.573,231.319 277.009,214.816C277.252,214.33 277.495,214.087 277.737,213.602C282.591,217.485 288.659,222.825 295.697,229.135L307.104,217.728C298.124,209.719 290.6,203.166 284.533,198.312C287.931,188.119 289.629,176.955 289.629,164.335C289.629,140.793 282.591,121.863 268.758,107.301C255.409,93.225 237.935,85.701 216.578,84.973C217.791,73.323 218.519,61.189 218.762,48.811L200.802,48.811C200.56,61.431 199.832,73.809 198.861,85.701C179.931,87.642 161.728,94.195 144.497,104.874C142.555,91.283 141.342,76.964 141.099,62.402ZM263.904,202.923C263.661,202.923 263.661,202.923 263.661,203.166C256.623,216.757 246.187,223.553 232.353,223.553C225.558,223.553 220.218,222.096 216.578,219.67C212.695,216.757 210.753,213.117 210.753,208.263C210.753,203.652 212.695,200.011 216.578,197.099C220.461,193.944 226.043,192.487 233.324,192.487C242.789,192.487 252.982,195.885 263.904,202.923ZM132.605,134.483L135.032,143.705C140.856,166.034 148.623,185.692 158.816,202.438C148.623,212.631 137.216,217.971 124.11,217.971C117.315,217.971 112.218,215.544 108.82,210.69C105.423,206.079 103.966,199.768 103.966,192.002C103.966,170.887 113.432,151.714 132.605,134.483ZM196.919,102.69C194.007,123.076 189.396,142.007 183.328,159.238C179.445,170.159 175.077,179.625 170.223,187.634C161.971,173.314 155.418,156.083 150.564,136.182C149.351,131.571 148.38,126.959 147.652,122.591C162.942,111.669 179.445,105.117 196.919,102.69Z" fill="currentColor" />
    </g>
</svg>
