<svg width="100%" height="100%" viewBox="0 0 300 300" version="1.1" xmlns="http://www.w3.org/2000/svg" xmlns:xlink="http://www.w3.org/1999/xlink" xml:space="preserve" xmlns:serif="http://www.serif.com/" style="fill-rule:evenodd;clip-rule:evenodd;stroke-linejoin:round;stroke-miterlimit:2;">
    <g transform="matrix(1.32184,0,0,1.32184,-96.3406,-48.1238)">
        <path d="M218.15,87.356C195.793,87.356 171.341,98.534 144.792,121.357C144.792,118.096 144.792,114.603 145.025,111.343L152.943,94.342L145.491,88.055C145.957,71.753 146.19,58.945 146.655,49.862L129.422,49.629L128.491,88.753L86.106,91.315L87.038,107.384L128.025,104.822L127.093,137.658C111.956,152.563 95.189,171.892 77.024,195.18L90.997,205.66C103.805,189.358 115.682,175.152 126.395,163.275C125.696,196.111 125.463,224.989 125.463,250.14L142.696,250.14C142.696,222.893 143.162,187.728 144.327,144.645C147.354,141.384 150.381,138.59 153.176,136.261C177.396,114.37 198.821,103.658 217.917,103.658C232.123,103.658 242.602,109.945 249.123,122.754C254.945,133.932 257.972,150.7 257.972,173.056C257.972,178.645 257.507,184.234 256.575,189.358C242.136,181.44 228.629,177.714 215.821,177.714C202.78,177.714 192.533,180.974 184.615,187.728C177.163,194.248 173.437,202.399 173.437,212.18C173.437,222.427 177.163,230.578 184.848,236.4C192.3,242.455 203.478,245.482 217.917,245.482C237.479,245.482 252.383,237.564 262.63,221.961L266.589,215.208C272.178,219.399 278.233,224.523 284.288,230.578L295.699,218.934C287.781,211.249 279.863,204.728 272.178,199.372C274.041,191.221 275.206,182.371 275.206,172.823C275.206,145.11 270.781,124.151 262.164,110.178C252.849,94.808 238.177,87.356 218.15,87.356ZM252.15,205.194L249.356,210.783C242.136,223.358 231.657,229.879 217.917,229.879C207.67,229.879 200.218,227.783 195.56,223.591C192.3,220.564 190.67,216.838 190.67,212.18C190.67,207.29 192.533,203.098 196.725,199.372C201.149,195.18 207.437,193.317 215.821,193.317C226.999,193.317 239.109,197.276 252.15,205.194Z" fill="currentColor" />
    </g>
</svg>
