<svg width="100%" height="100%" viewBox="0 0 300 300" version="1.1" xmlns="http://www.w3.org/2000/svg" xmlns:xlink="http://www.w3.org/1999/xlink" xml:space="preserve" xmlns:serif="http://www.serif.com/" style="fill-rule:evenodd;clip-rule:evenodd;stroke-linejoin:round;stroke-miterlimit:2;">
    <g transform="matrix(1.58167,0,0,1.58167,-146.258,-116.947)">
        <path d="M191.951,88.311C163.654,88.311 140.757,97.383 123.26,115.96C106.843,133.025 98.634,153.546 98.634,177.74C98.634,193.293 102.306,206.685 110.083,217.486C118.075,228.719 128.444,234.335 140.973,234.335C156.525,234.335 169.27,222.238 178.775,198.045C184.607,184.004 189.143,165.859 192.383,143.61L196.92,103.432C213.337,104.296 227.593,110.128 239.69,120.712C253.083,132.377 259.779,147.066 259.779,165.211C259.779,183.788 254.379,198.693 244.01,209.493C232.562,221.158 213.985,229.583 188.279,234.551L193.679,249.24C221.113,243.623 241.418,234.551 254.379,222.022C268.636,208.197 275.98,189.404 275.98,165.211C275.98,143.61 267.988,125.465 252.435,110.776C236.234,95.655 216.145,88.311 191.951,88.311ZM140.973,219.43C133.628,219.43 127.364,215.542 122.611,207.765C117.427,199.773 114.835,189.836 114.835,177.74C114.835,156.354 122.179,138.425 137.3,124.169C149.397,112.504 164.086,105.592 181.151,103.864C179.423,126.761 176.182,147.93 171.862,167.155C163.87,201.933 153.501,219.43 140.973,219.43Z" fill="currentColor" />
    </g>
</svg>
