<svg width="100%" height="100%" viewBox="0 0 300 300" version="1.1" xmlns="http://www.w3.org/2000/svg" xmlns:xlink="http://www.w3.org/1999/xlink" xml:space="preserve" xmlns:serif="http://www.serif.com/" style="fill-rule:evenodd;clip-rule:evenodd;stroke-linejoin:round;stroke-miterlimit:2;">
    <g transform="matrix(1.29876,0,0,1.29876,-92.576,-43.8435)">
        <path d="M286.141,83.794C273.049,85.627 258.125,86.936 241.367,87.983C240.582,73.582 239.796,58.134 239.011,41.638L219.111,41.9L221.468,88.769C210.471,89.03 198.95,89.292 186.906,89.292C169.624,89.292 152.343,88.769 135.586,87.721L135.848,106.835C150.772,107.621 167.792,108.144 186.906,108.144C199.212,108.144 210.994,107.883 222.253,107.621C223.562,139.041 224.348,163.391 224.61,180.934C212.304,176.745 200.259,174.65 188.477,174.65C173.552,174.65 161.508,178.054 152.082,185.386C142.132,192.717 137.419,202.929 137.419,216.02C137.419,229.374 142.917,239.585 153.914,246.655C163.34,252.415 175.385,255.557 190.309,255.557C209.162,255.557 223.562,249.535 232.988,237.753C238.749,230.159 242.415,220.995 243.986,209.998C254.983,216.806 267.812,227.017 282.999,240.633L294.781,226.232C277.762,210.522 261.005,198.216 244.771,189.837C244.509,169.676 243.724,141.921 242.153,106.835C258.648,105.788 273.311,104.479 286.403,102.646L286.141,83.794ZM224.61,200.31C224.086,210.522 221.468,218.639 217.278,224.923C211.518,233.04 202.354,237.229 190.309,237.229C181.407,237.229 174.076,235.92 168.839,233.301C161.246,229.636 157.58,223.875 157.58,216.02C157.58,208.689 160.46,202.929 166.221,198.739C171.457,194.55 179.051,192.717 188.477,192.717C200.521,192.717 212.565,195.073 224.61,200.31ZM90.289,43.471C82.434,80.652 78.768,121.76 78.768,166.795C78.768,201.881 84.005,231.73 94.74,256.866L112.806,250.321C103.118,226.494 98.405,198.739 98.405,166.795C98.405,122.022 102.071,81.961 109.926,46.613L90.289,43.471Z" fill="currentColor" />
    </g>
</svg>
