<svg width="100%" height="100%" viewBox="0 0 300 300" version="1.1" xmlns="http://www.w3.org/2000/svg" xmlns:xlink="http://www.w3.org/1999/xlink" xml:space="preserve" xmlns:serif="http://www.serif.com/" style="fill-rule:evenodd;clip-rule:evenodd;stroke-linejoin:round;stroke-miterlimit:2;">
    <g transform="matrix(2.18854,0,0,2.18854,-160.859,-123.263)">
        <path d="M168.813,70.831L158.876,74.42C166.053,93.05 169.641,110.715 169.641,127.414C169.641,140.386 166.743,150.323 161.084,157.499C155.012,164.951 146.18,168.816 134.587,168.816C124.513,168.816 116.646,166.055 110.85,160.811C105.054,155.291 102.156,147.701 102.156,137.902C102.156,130.174 103.812,122.308 107.262,114.303C111.402,104.505 118.579,93.188 128.791,80.354L122.029,73.591C109.47,80.078 94.566,83.528 77.177,83.942L77.177,94.016C83.525,94.016 89.735,93.326 96.084,92.084C102.57,90.566 108.504,88.496 113.748,86.012C106.296,94.568 100.776,103.677 96.912,113.199C93.323,121.894 91.529,130.174 91.529,137.902C91.529,150.599 95.394,160.673 103.26,168.126C110.988,175.302 121.477,178.89 134.587,178.89C149.768,178.89 161.36,173.922 169.365,164.123C176.403,155.153 179.991,143.008 179.991,127.552C179.991,123.688 179.577,119.409 178.749,114.579C177.921,109.473 176.817,104.919 175.575,101.055C181.647,111.267 190.066,120.237 200.692,127.69L206.902,118.995C197.656,112.647 189.928,105.609 183.717,97.881C177.093,89.6 172.125,80.492 168.813,70.831Z" fill="currentColor" />
    </g>
</svg>
