<svg width="100%" height="100%" viewBox="0 0 300 300" version="1.1" xmlns="http://www.w3.org/2000/svg" xmlns:xlink="http://www.w3.org/1999/xlink" xml:space="preserve" xmlns:serif="http://www.serif.com/" style="fill-rule:evenodd;clip-rule:evenodd;stroke-linejoin:round;stroke-miterlimit:2;">
    <g transform="matrix(1.38684,0,0,1.38684,-105.869,-68.5129)">
        <path d="M136.958,69.57L136.522,85.053C166.398,85.925 197.146,90.505 228.766,99.01L233.128,84.181C198.673,75.676 166.616,70.879 136.958,69.57ZM242.723,146.549L229.421,156.144C247.084,179.042 259.733,203.902 267.365,230.507L283.066,225.927C275.216,198.014 261.695,171.409 242.723,146.549ZM171.414,108.605C164.871,119.945 161.818,129.976 161.818,138.699C161.818,146.767 168.361,156.581 181.663,168.138C188.423,174.244 193.657,179.478 197.146,184.058C202.38,191.472 204.997,198.668 204.997,205.865C204.997,212.843 202.816,218.295 198.891,222.438C194.093,227.454 186.461,230.071 176.211,230.071C164.653,230.071 150.697,226.363 134.342,219.167L129.108,233.778C146.554,241.628 162.255,245.554 176.211,245.554C190.604,245.554 201.726,242.065 209.794,235.304C217.863,228.326 222.006,218.513 222.006,205.865C222.006,195.833 218.735,186.674 212.629,177.952C208.704,172.5 201.944,165.303 192.13,156.581C182.971,148.294 178.392,142.188 178.392,138.263C178.392,131.284 181.445,122.998 187.769,112.966L171.414,108.605ZM123.002,150.257C116.46,180.132 104.03,204.12 85.93,222.22L98.796,232.033C118.858,211.535 132.379,185.584 139.139,153.746L123.002,150.257Z" fill="currentColor" />
    </g>
</svg>
