<svg width="100%" height="100%" viewBox="0 0 300 300" version="1.1" xmlns="http://www.w3.org/2000/svg" xmlns:xlink="http://www.w3.org/1999/xlink" xml:space="preserve" xmlns:serif="http://www.serif.com/" style="fill-rule:evenodd;clip-rule:evenodd;stroke-linejoin:round;stroke-miterlimit:2;">
    <g transform="matrix(1.46698,0,0,1.46698,-101.992,-76.0876)">
        <path d="M149.531,93.679C143.233,93.679 137.138,97.133 131.45,104.243C111.948,127.809 93.867,147.718 77.209,164.173L89.398,175.956C107.275,157.063 125.356,136.748 143.233,115.01C145.671,111.76 147.702,110.135 149.734,110.135C150.953,110.135 152.172,110.744 153.797,111.963C155.016,113.182 157.251,115.417 160.298,118.667C195.646,157.672 227.338,189.77 255.373,214.555L266.343,202.163C237.496,176.362 205.601,144.468 170.659,106.478C165.783,101.399 161.72,97.946 158.266,96.117C155.422,94.492 152.375,93.679 149.531,93.679Z" fill="currentColor" />
    </g>
</svg>
