<svg width="100%" height="100%" viewBox="0 0 300 300" version="1.1" xmlns="http://www.w3.org/2000/svg" xmlns:xlink="http://www.w3.org/1999/xlink" xml:space="preserve" xmlns:serif="http://www.serif.com/" style="fill-rule:evenodd;clip-rule:evenodd;stroke-linejoin:round;stroke-miterlimit:2;">
     <g transform="matrix(1.86531,0,0,1.86531,-186.246,-137.989)">
        <path d="M248.721,86.119C225.502,89.067 201.731,90.726 177.407,90.726C168.562,90.726 158.795,90.357 147.739,89.804L147.739,102.335C158.611,102.703 168.562,103.072 177.407,103.072C186.621,103.072 195.834,102.703 205.232,102.335C205.785,112.838 206.338,122.789 206.706,132.187C195.097,132.74 184.962,133.109 176.301,133.109C165.798,133.109 155.663,132.74 146.08,132.372L146.08,144.718C156.031,144.902 165.982,145.086 175.933,145.086C186.436,145.086 196.756,144.902 207.075,144.534C207.444,156.696 207.812,167.568 207.996,177.519C198.967,174.202 190.122,172.727 181.461,172.727C171.142,172.727 162.481,175.123 155.847,180.283C148.66,185.442 145.159,192.629 145.159,201.474C145.159,210.688 149.029,217.69 156.953,222.85C163.771,227.088 172.616,229.3 183.488,229.3C196.387,229.3 206.154,225.43 212.787,217.69C217.21,212.346 219.79,205.713 220.896,197.604C229.556,202.948 238.586,209.951 247.8,218.612L255.908,208.477C244.114,197.604 232.505,189.312 221.264,183.415C221.08,170.885 220.896,157.617 220.527,143.981C230.478,143.428 240.429,142.691 250.195,141.769L250.195,129.423C239.323,130.16 229.188,130.897 219.974,131.45C219.606,121.868 219.053,111.917 218.5,101.598C228.451,100.861 238.586,99.755 248.721,98.649L248.721,86.119ZM207.812,190.971C206.891,208.108 198.783,216.769 183.488,216.769C176.117,216.769 170.036,215.479 165.613,212.899C160.822,210.319 158.611,206.45 158.611,201.474C158.611,196.683 160.638,192.813 164.876,189.865C168.93,186.732 174.459,185.258 181.461,185.258C189.938,185.258 198.598,187.101 207.812,190.971ZM112.911,78.564C107.383,103.072 104.619,129.423 104.619,157.801C104.619,187.469 108.304,211.609 115.675,230.221L128.206,225.061C121.572,207.924 118.255,185.442 118.255,157.801C118.255,130.529 120.835,105.099 126.363,81.512L112.911,78.564Z" fill="currentColor" />
    </g>
</svg>
