<svg width="100%" height="100%" viewBox="0 0 300 300" version="1.1" xmlns="http://www.w3.org/2000/svg" xmlns:xlink="http://www.w3.org/1999/xlink" xml:space="preserve" xmlns:serif="http://www.serif.com/" style="fill-rule:evenodd;clip-rule:evenodd;stroke-linejoin:round;stroke-miterlimit:2;">
    <g transform="matrix(1.39622,0,0,1.39622,-153.175,-79.0352)">
        <path d="M305.711,92.046C276.914,93.256 250.778,94.224 227.546,94.708C227.062,84.544 226.82,73.655 226.336,62.523L208.429,63.007L209.397,94.95L190.763,94.95C179.147,94.95 166.805,94.708 153.738,94.466L128.328,93.74L128.57,110.196L153.738,110.922C167.047,110.922 179.389,111.164 190.763,111.164L209.881,111.164C210.123,123.748 210.365,135.121 210.849,145.527L187.375,145.527C177.937,145.527 166.563,145.285 153.496,144.801C143.816,144.559 136.556,144.317 131.716,144.317L131.716,160.773L138.492,161.015C160.272,161.499 176.727,161.741 187.617,161.741L211.091,161.741L211.817,196.104C199.959,193.2 188.585,191.749 177.695,191.749C163.659,191.749 152.528,194.652 143.816,200.944C133.652,207.72 128.812,216.916 128.812,229.016C128.812,240.874 133.652,250.07 143.574,256.603C152.286,262.411 163.659,265.557 177.211,265.557C196.087,265.557 209.881,259.991 218.593,249.102C224.4,241.6 228.03,231.436 229.482,218.852C232.87,220.304 236.5,221.756 240.13,223.45C258.522,232.162 276.672,243.536 294.821,257.813L305.953,244.02C286.593,228.774 266.508,216.674 245.696,207.72C240.372,205.3 235.29,203.364 230.208,201.428C230.208,191.507 229.966,178.197 229.482,161.499C253.924,161.257 277.64,161.015 300.871,160.531L300.871,143.833C276.672,144.559 252.714,145.043 228.998,145.285C228.514,134.879 228.272,123.506 228.03,110.922C252.956,110.438 278.85,109.712 305.711,108.744L305.711,92.046ZM212.059,212.56C211.575,223.692 209.155,232.162 204.557,238.212C198.749,245.472 189.553,249.344 177.211,249.344C168.257,249.344 160.998,247.65 155.674,244.262C149.382,240.632 146.478,235.55 146.478,229.016C146.478,222.24 149.624,216.916 155.916,213.044C161.724,209.172 168.983,207.478 177.695,207.478C188.585,207.478 199.959,209.172 212.059,212.56Z" fill="currentColor" />
    </g>
</svg>
