<svg width="100%" height="100%" viewBox="0 0 300 300" version="1.1" xmlns="http://www.w3.org/2000/svg" xmlns:xlink="http://www.w3.org/1999/xlink" xml:space="preserve" xmlns:serif="http://www.serif.com/" style="fill-rule:evenodd;clip-rule:evenodd;stroke-linejoin:round;stroke-miterlimit:2;">
    <g transform="matrix(1.70979,0,0,1.70979,-152.941,-89.3794)">
        <path d="M215.227,96.775C215.041,111.957 214.486,125.102 213.745,136.025C198.934,131.396 185.234,128.249 172.274,126.583C175.977,111.031 179.495,92.702 182.827,71.596L175.792,66.968C158.574,68.819 138.023,69.745 113.955,69.745L113.955,82.89C131.358,82.89 149.317,82.149 167.831,80.668C165.054,96.96 161.906,111.771 158.574,125.287C155.241,124.916 151.909,124.916 148.761,124.916C131.914,124.916 118.769,128.989 109.142,137.136C99.514,145.282 94.886,156.39 94.886,170.09C94.886,178.607 97.478,186.012 102.662,191.937C107.846,197.861 114.696,200.824 122.842,200.824C140.245,200.824 154.686,183.235 166.165,148.429C167.09,145.467 168.016,142.319 168.942,139.172C182.457,140.838 196.898,144.171 212.264,149.17C211.524,153.428 210.783,157.316 210.043,160.648C207.451,171.386 203.192,180.088 197.083,186.568C191.899,192.122 184.123,197.121 173.755,201.749L183.012,213.043C201.896,203.786 214.486,191.196 220.596,175.274C222.632,169.72 224.298,162.5 225.779,153.798C234.666,157.131 244.108,161.019 253.736,165.462L259.475,153.243C248.366,148.244 237.628,143.986 227.261,140.468C228.371,128.249 228.927,113.808 229.112,97.145L215.227,96.775ZM155.056,138.061C154.316,140.098 153.575,142.134 153.02,144.356C143.763,173.238 133.58,187.679 122.842,187.679C118.769,187.679 115.436,186.012 112.844,182.68C109.882,178.977 108.401,174.904 108.401,170.09C108.401,160.278 111.548,152.502 118.213,146.948C125.064,140.838 135.246,137.876 148.761,137.876C150.798,137.876 152.835,137.876 155.056,138.061Z" fill="currentColor" />
    </g>
</svg>
