<svg width="100%" height="100%" viewBox="0 0 300 300" version="1.1" xmlns="http://www.w3.org/2000/svg" xmlns:xlink="http://www.w3.org/1999/xlink" xml:space="preserve" xmlns:serif="http://www.serif.com/" style="fill-rule:evenodd;clip-rule:evenodd;stroke-linejoin:round;stroke-miterlimit:2;">
    <g transform="matrix(1.54533,0,0,1.54533,-112.084,-53.159)">
        <path d="M210.43,57.32L200.613,67.972C215.652,80.503 231.317,96.586 247.399,115.802L258.051,105.985C242.804,87.187 226.93,71.105 210.43,57.32ZM193.721,71.313C180.98,72.149 166.36,72.775 149.859,73.193C150.068,64.839 150.277,54.813 150.695,43.326L135.657,43.326C135.239,54.187 134.821,64.212 134.612,73.402L128.973,73.402C116.441,73.402 101.403,73.193 83.649,72.775L83.232,86.561C97.017,86.769 112.055,86.978 128.764,86.978L134.195,86.978C133.777,100.554 133.777,111.624 133.777,119.979C133.777,122.276 133.986,124.365 134.612,126.245C132.941,122.485 130.226,119.143 126.467,116.637C122.707,113.713 118.739,112.251 114.979,112.251C104.536,112.251 96.181,116.01 89.915,123.53C84.067,130.631 81.143,139.612 81.143,150.682C81.143,160.707 83.858,168.853 89.498,175.119C95.137,181.385 102.865,184.518 112.473,184.518C118.739,184.518 124.169,181.594 128.764,175.955C126.258,181.176 125.213,186.398 125.213,191.41C125.213,210.208 143.176,219.607 179.1,219.607C228.184,219.607 252.83,207.284 252.83,183.056C252.83,170.106 248.652,154.65 240.507,136.688L227.139,142.745C234.241,158.619 238,171.986 238,182.847C238,189.113 233.823,194.126 225.677,198.094C215.652,203.107 199.987,205.613 179.1,205.613C153.201,205.613 140.252,200.392 140.252,190.366C140.252,187.442 140.669,183.891 141.505,180.132C144.429,166.764 146.1,156.53 146.726,149.846C147.562,135.226 148.397,117.472 149.233,96.168C149.233,93.453 149.233,90.32 149.442,86.769C167.195,86.352 182.233,85.934 194.765,85.098L193.721,71.313ZM114.77,125.827C120.201,125.827 124.796,128.125 128.138,132.72C131.062,136.688 132.524,141.91 132.524,148.176C132.524,154.441 130.644,159.663 127.093,163.84C123.334,168.018 118.321,170.106 112.473,170.106C107.46,170.106 103.283,168.227 100.15,164.676C96.808,160.916 95.137,156.321 95.137,150.682C95.137,143.581 96.808,137.732 100.359,133.137C103.909,128.125 108.713,125.827 114.77,125.827Z" fill="currentColor" />
    </g>
</svg>
