<svg width="100%" height="100%" viewBox="0 0 300 300" version="1.1" xmlns="http://www.w3.org/2000/svg" xmlns:xlink="http://www.w3.org/1999/xlink" xml:space="preserve" xmlns:serif="http://www.serif.com/" style="fill-rule:evenodd;clip-rule:evenodd;stroke-linejoin:round;stroke-miterlimit:2;">
    <g transform="matrix(1.36135,0,0,1.36135,-104.813,-64.8492)">
        <path d="M199.792,56.047C199.307,68.662 198.579,80.793 197.366,92.681C177.472,93.166 159.277,98.261 142.779,107.965C141.081,95.349 140.111,82.491 139.868,69.39L122.158,70.846C122.643,87.586 124.099,103.598 126.525,119.125C124.584,120.581 122.643,122.036 120.945,123.734C97.169,144.356 85.281,168.617 85.281,196.517C85.281,210.588 88.92,221.505 96.441,229.754C103.477,237.518 112.939,241.642 124.584,241.642C156.851,241.642 181.111,219.322 197.366,174.925C204.159,156.001 209.497,134.167 212.893,109.906C227.935,111.361 240.308,116.214 250.497,124.462C264.326,135.622 271.362,151.392 271.362,171.771C271.362,191.179 263.841,206.949 248.799,219.565C234.243,231.452 214.349,239.458 188.875,243.34L195.425,259.595C223.083,255.228 244.917,246.252 261.415,232.423C279.853,216.896 289.072,196.517 289.072,171.771C289.072,146.54 280.338,126.646 262.87,112.332C249.77,101.657 233.757,95.349 214.834,93.408C216.047,82.006 217.017,70.118 217.503,57.502L199.792,56.047ZM195.425,109.421C192.514,128.829 188.147,147.025 182.325,164.007C178.2,175.895 173.833,186.085 168.981,194.576C160.732,180.02 154.182,162.794 149.33,143.143C147.874,137.563 146.661,131.983 145.691,126.161C160.732,115.728 177.472,110.148 195.425,109.421ZM157.821,209.618C148.117,219.807 137.199,224.902 125.069,224.902C118.761,224.902 113.666,222.233 109.542,217.381C105.175,212.044 102.992,205.008 102.992,196.517C102.992,174.925 111.968,155.516 130.164,138.534C130.892,142.415 131.862,146.54 133.075,150.664C139.14,172.984 147.389,192.635 157.821,209.618Z" fill="currentColor" />
    </g>
</svg>
