<svg width="100%" height="100%" viewBox="0 0 300 300" version="1.1" xmlns="http://www.w3.org/2000/svg" xmlns:xlink="http://www.w3.org/1999/xlink" xml:space="preserve" xmlns:serif="http://www.serif.com/" style="fill-rule:evenodd;clip-rule:evenodd;stroke-linejoin:round;stroke-miterlimit:2;">
    <g transform="matrix(1.28664,0,0,1.28664,-116.701,-49.0572)">
        <path d="M274.528,83.401C249.868,84.418 221.141,84.927 188.346,85.435L192.668,47.556L173.092,47.556L168.771,85.689C149.958,85.689 130.129,85.944 109.028,85.944L109.028,103.485C129.366,103.485 148.687,103.231 166.991,103.231C165.466,117.468 164.195,130.687 163.178,142.636C142.84,143.144 123.264,143.398 104.96,143.398L104.96,161.448C123.264,161.448 142.331,161.194 161.652,160.94C160.381,178.481 159.873,192.464 159.873,203.141C159.873,223.479 165.72,238.478 177.669,248.139C189.109,257.291 206.396,261.867 229.276,261.867C282.663,261.867 309.611,245.597 309.611,213.056C309.611,201.616 304.781,186.108 295.12,166.533L277.325,174.668C285.968,190.43 290.29,203.141 290.29,212.293C290.29,224.496 282.918,233.14 268.173,238.224C258.004,241.783 245.038,243.817 229.276,243.817C212.497,243.817 200.04,240.512 192.159,234.411C183.516,227.547 179.194,217.124 179.194,203.141C179.194,192.718 179.702,178.481 181.228,160.431C208.938,159.669 237.411,158.652 266.647,157.127L266.647,139.077C237.157,140.348 209.192,141.365 182.753,142.127C183.77,130.433 185.041,117.213 186.566,102.977C219.87,102.468 249.106,101.96 274.274,100.943L274.528,83.401Z" fill="currentColor" />
        </g>
</svg>
