<svg width="100%" height="100%" viewBox="0 0 300 300" version="1.1" xmlns="http://www.w3.org/2000/svg" xmlns:xlink="http://www.w3.org/1999/xlink" xml:space="preserve" xmlns:serif="http://www.serif.com/" style="fill-rule:evenodd;clip-rule:evenodd;stroke-linejoin:round;stroke-miterlimit:2;">
    <g transform="matrix(2.26681,0,0,2.26681,-214.027,-112.687)">
        <path d="M165.995,58.801L156.672,62.989C160.185,69.204 163.428,76.906 166.535,86.228C166.535,86.228 166.535,86.363 166.67,86.498C160.996,87.444 154.646,88.795 147.89,90.551L139.784,92.713C136.676,81.769 133.434,72.042 130.191,63.395L120.869,67.043C124.111,75.419 127.219,84.877 130.326,95.415C119.788,98.658 109.655,102.171 99.927,106.089L104.115,115.006C113.033,111.223 122.625,107.71 132.893,104.738C138.027,124.193 142.756,147.026 147.215,172.967L157.348,171.346C152.484,144.865 147.485,121.626 142.351,101.9L149.512,100.009C156.807,98.117 163.428,96.766 169.372,95.821C170.723,100.955 171.804,106.224 172.615,111.358L182.613,109.872C181.802,105.008 180.721,99.874 179.37,94.47C182.613,94.064 185.45,93.929 188.152,93.929C195.313,93.929 200.988,95.821 205.311,99.739C209.094,103.387 211.121,108.25 211.121,114.195C211.121,120.005 209.229,124.599 205.716,127.841C201.933,131.354 196.259,133.245 188.693,133.245C183.018,133.245 176.128,131.894 167.751,129.462L165.589,139.055C174.101,141.487 181.802,142.838 188.693,142.838C199.231,142.838 207.338,139.866 213.282,134.191C218.552,129.057 221.254,122.302 221.254,114.195C221.254,105.278 218.146,97.982 212.066,92.443C205.851,86.768 197.88,84.066 188.152,84.066C184.775,84.066 180.992,84.336 176.668,84.877L176.128,83.256C172.885,72.987 169.507,64.746 165.995,58.801Z" fill="currentColor" />
    </g>
</svg>
