<svg width="100%" height="100%" viewBox="0 0 300 300" version="1.1" xmlns="http://www.w3.org/2000/svg" xmlns:xlink="http://www.w3.org/1999/xlink" xml:space="preserve" xmlns:serif="http://www.serif.com/" style="fill-rule:evenodd;clip-rule:evenodd;stroke-linejoin:round;stroke-miterlimit:2;">
    <g transform="matrix(2.21026,0,0,2.21026,-213.74,-137.061)">
        <path d="M112.797,74.056C108.17,93.434 106,112.089 106,130.166C106,142.024 107.591,154.895 111.062,168.633L121.474,166.608C119.883,158.655 118.726,152.292 117.859,147.519C121.908,130.744 128.705,117.729 138.249,108.329C146.926,99.652 157.483,94.591 169.919,93.434C171.366,105.871 172.089,117.295 172.089,127.418C172.089,138.987 170.787,148.676 168.329,156.196C158.35,154.172 148.806,148.242 139.84,138.698L132.32,146.218C142.298,156.485 152.71,162.993 163.556,165.885C158.64,173.26 151.264,179.19 141.575,183.817L147.504,192.639C160.375,186.131 169.63,177.743 175.27,167.476L175.993,167.476C190.888,167.476 202.457,163.571 210.845,155.907C218.943,148.387 223.137,138.119 223.137,125.393C223.137,112.089 218.943,101.822 210.556,94.302C202.747,87.216 192.334,83.456 179.319,82.877C178.596,77.816 177.873,72.61 177.005,67.114L166.304,69.139L168.473,83.166C157.483,84.323 147.649,88.517 138.972,95.603C128.849,103.557 121.185,114.692 116.268,129.009L116.123,122.212C116.123,118.307 116.702,111.944 118.148,103.123C119.739,92.422 121.474,83.6 123.354,76.37L112.797,74.056ZM180.621,93.289C189.876,93.868 197.251,96.76 202.747,101.677C208.965,107.172 212.146,115.126 212.146,125.393C212.146,135.372 208.82,143.181 202.457,148.821C196.673,153.738 189.008,156.485 179.464,157.064C181.778,148.965 182.935,138.987 182.935,127.418C182.935,117.874 182.067,106.594 180.621,93.289Z" fill="currentColor" />
    </g>
</svg>
