<svg width="100%" height="100%" viewBox="0 0 300 300" version="1.1" xmlns="http://www.w3.org/2000/svg" xmlns:xlink="http://www.w3.org/1999/xlink" xml:space="preserve" xmlns:serif="http://www.serif.com/" style="fill-rule:evenodd;clip-rule:evenodd;stroke-linejoin:round;stroke-miterlimit:2;">
    <g transform="matrix(1.82164,0,0,1.82164,-167.409,-115.547)">
        <path d="M232.828,103.608L181.707,106.779C180.96,95.025 180.027,82.525 178.908,69.278L164.728,69.278C168.087,111.257 170.139,143.348 170.699,165.551C163.049,163.685 155.959,162.752 149.429,162.752C134.876,162.752 123.682,165.737 116.219,172.081C109.129,177.491 105.771,184.581 105.771,193.537C105.771,202.492 109.129,209.396 116.219,214.62C123.122,219.657 132.451,222.269 144.205,222.269C157.825,222.269 167.9,218.724 174.617,211.821C180.401,205.478 183.759,196.335 184.505,184.021C187.677,185.327 191.035,186.82 194.58,188.499C210.066,195.962 223.313,204.358 234.507,213.5L242.717,203.239C229.843,192.604 215.29,183.462 199.058,175.812C194.021,173.387 189.17,171.334 184.692,169.842C184.319,155.662 183.572,138.87 182.453,119.467L232.642,116.295L232.828,103.608ZM170.885,178.984C170.512,187.94 168.833,194.843 165.848,199.694C161.37,206.224 154.28,209.582 144.205,209.582C136.182,209.582 130.025,208.09 125.734,205.104C121.63,202.119 119.577,198.388 119.577,193.537C119.577,187.94 121.816,183.648 126.48,180.663C131.705,177.118 139.354,175.439 149.429,175.439C155.773,175.439 162.863,176.558 170.885,178.984Z" fill="currentColor" />
    </g>
</svg>
