<svg width="100%" height="100%" viewBox="0 0 300 300" version="1.1" xmlns="http://www.w3.org/2000/svg" xmlns:xlink="http://www.w3.org/1999/xlink" xml:space="preserve" xmlns:serif="http://www.serif.com/" style="fill-rule:evenodd;clip-rule:evenodd;stroke-linejoin:round;stroke-miterlimit:2;">
    <g transform="matrix(1.45889,0,0,1.45889,-169.684,-73.2826)">
        <path d="M166.612,57.865L162.991,73.484C175.667,74.842 191.965,77.784 211.884,82.312C233.615,87.292 249.687,91.592 260.099,95.667L266.437,81.18C255.572,76.879 238.595,72.125 215.733,66.919C195.134,62.166 178.836,59.223 166.612,57.865ZM157.784,95.667C155.294,134.601 150.088,164.707 142.392,185.532L156.426,191.87C169.781,180.552 182.91,172.629 195.813,167.649C208.715,162.67 222.75,160.18 238.142,160.18C250.366,160.18 260.325,163.122 268.022,169.46C275.039,175.346 278.661,182.589 278.661,191.191C278.661,203.867 273.002,213.827 261.684,221.07C250.366,228.314 233.841,231.936 212.337,231.936C199.208,231.936 185.174,231.257 170.234,230.125L169.329,246.649C184.268,247.555 198.756,248.234 212.337,248.234C237.237,248.234 256.93,243.48 271.87,234.426C287.715,224.466 295.864,210.205 295.864,191.191C295.864,176.93 290.205,165.386 278.887,156.784C268.022,148.635 254.44,144.561 238.142,144.561C224.108,144.561 210.526,146.824 197.397,151.578C184.268,155.879 172.95,162.217 162.991,170.366C168.197,157.237 172.045,132.79 174.761,97.025L157.784,95.667Z" fill="currentColor" />
    </g>
</svg>
