<svg width="100%" height="100%" viewBox="0 0 300 300" version="1.1" xmlns="http://www.w3.org/2000/svg" xmlns:xlink="http://www.w3.org/1999/xlink" xml:space="preserve" xmlns:serif="http://www.serif.com/" style="fill-rule:evenodd;clip-rule:evenodd;stroke-linejoin:round;stroke-miterlimit:2;">
    <g transform="matrix(1.78239,0,0,1.78239,-180.546,-137.878)">
        <path d="M236.52,84.53L222.281,87.947C226.838,103.894 229.116,122.119 229.116,142.623C229.116,164.455 224.749,181.731 216.016,194.261C207.284,206.791 191.906,217.422 170.263,226.535L178.427,238.685C201.968,228.244 218.864,215.904 228.736,201.475C238.798,186.667 243.924,167.113 243.924,142.623C243.924,120.6 241.456,101.236 236.52,84.53ZM136.091,84.34C133.433,92.503 131.345,101.616 129.826,111.867C127.928,123.258 126.978,134.269 126.978,144.901C126.978,153.444 127.738,161.607 129.636,169.201C131.914,178.883 135.332,186.287 140.078,191.603L151.848,189.515C155.265,175.466 160.012,163.506 166.087,153.634L154.506,148.128C149.95,155.342 146.912,163.506 145.014,172.998C142.356,166.543 141.217,157.051 141.217,144.901C141.217,137.117 141.976,127.435 143.685,116.044C145.393,104.843 147.482,95.541 149.76,88.326L136.091,84.34Z" fill="currentColor" />
    </g>
</svg>
