<svg width="100%" height="100%" viewBox="0 0 300 300" version="1.1" xmlns="http://www.w3.org/2000/svg" xmlns:xlink="http://www.w3.org/1999/xlink" xml:space="preserve" xmlns:serif="http://www.serif.com/" style="fill-rule:evenodd;clip-rule:evenodd;stroke-linejoin:round;stroke-miterlimit:2;">
    <g transform="matrix(2.74739,0,0,2.74739,-325.668,-237.925)">
        <path d="M199.042,92.435L137.015,94.428L137.513,103.147L188.828,100.656L127.798,153.715L133.776,160.068C140.751,153.715 148.473,148.609 156.818,144.623C166.534,140.139 175.75,137.897 184.594,137.897C192.316,137.897 198.17,139.392 202.405,142.506C206.889,145.869 209.255,150.851 209.255,157.452C209.255,165.174 205.02,171.527 196.675,176.26L193.561,177.879C192.067,171.402 189.451,166.171 185.839,162.31C180.982,156.829 174.38,154.214 165.911,154.214C159.683,154.214 154.701,155.957 150.964,159.569C147.352,162.808 145.609,166.918 145.609,171.9C145.609,177.38 147.975,181.74 152.957,185.103C157.939,188.341 164.665,189.96 173.135,189.96C186.088,189.96 196.924,186.971 205.643,180.993C214.113,175.014 218.472,167.167 218.472,157.452C218.472,148.733 215.607,142.007 209.878,137.025C204.024,132.043 195.928,129.552 185.59,129.552C176.871,129.552 167.655,132.292 157.939,138.022C175.626,122.826 191.07,109.873 204.273,98.912L199.042,92.435ZM184.967,180.619C181.231,181.366 177.37,181.864 173.135,181.864C166.658,181.864 161.801,180.743 158.562,178.501C155.822,176.633 154.576,174.391 154.576,171.776C154.576,169.16 155.573,166.918 157.69,165.174C159.683,163.306 162.423,162.434 165.911,162.434C175.377,162.434 181.604,167.665 184.469,178.252C184.594,178.875 184.718,179.622 184.967,180.619Z" fill="currentColor" />
    </g>
</svg>
