<svg width="100%" height="100%" viewBox="0 0 300 300" version="1.1" xmlns="http://www.w3.org/2000/svg" xmlns:xlink="http://www.w3.org/1999/xlink" xml:space="preserve" xmlns:serif="http://www.serif.com/" style="fill-rule:evenodd;clip-rule:evenodd;stroke-linejoin:round;stroke-miterlimit:2;">
    <g transform="matrix(2.22619,0,0,2.22619,-255.239,-172.815)">
        <path d="M198.769,107.184C187.656,107.184 174.267,113.878 158.736,127.535L158.468,127.803C158.468,126.196 158.602,124.456 158.602,122.849L163.288,113.075L159.003,109.46C159.137,100.088 159.271,92.724 159.539,87.502L149.765,87.368L149.229,109.862L124.862,111.335L125.397,120.573L148.962,119.1L148.426,137.175C139.322,146.28 129.682,157.259 119.64,170.38L127.673,176.673C134.903,167.167 141.732,158.999 148.024,152.037C147.623,171.317 147.489,188.187 147.489,202.647L157.263,202.647C157.263,186.848 157.531,166.497 158.2,141.326C159.539,139.853 161.012,138.514 162.351,137.309C177.078,123.385 189.262,116.556 198.769,116.556C206.133,116.556 209.881,120.305 209.881,127.803C209.881,131.82 209.078,139.987 207.605,152.037C205.731,166.095 204.928,174.664 204.928,177.61C204.928,190.196 210.417,196.488 221.53,196.488C226.35,196.488 230.768,195.016 234.785,192.07C237.597,189.66 240.81,185.777 244.425,180.422L236.258,174.53C231.438,182.832 226.484,186.982 221.664,186.982C217.379,186.982 215.237,183.769 215.237,177.61C215.237,173.861 216.04,165.292 217.781,152.037C219.12,140.522 219.923,132.355 219.923,127.803C219.923,121.376 218.049,116.422 214.568,112.807C210.819,109.058 205.597,107.184 198.769,107.184Z" fill="currentColor" />
    </g>
</svg>
