<svg width="100%" height="100%" viewBox="0 0 300 300" version="1.1" xmlns="http://www.w3.org/2000/svg" xmlns:xlink="http://www.w3.org/1999/xlink" xml:space="preserve" xmlns:serif="http://www.serif.com/" style="fill-rule:evenodd;clip-rule:evenodd;stroke-linejoin:round;stroke-miterlimit:2;">
    <g transform="matrix(2.31589,0,0,2.31589,-268.031,-201.564)">
        <path d="M212.015,92.413L136.754,95.133L137.359,105.56L199.472,102.538L125.42,166.917L132.825,174.776C143.102,166.011 152.925,159.361 162.295,155.13C172.873,150.143 183.754,147.725 194.938,147.725C204.005,147.725 211.259,149.689 216.549,153.921C221.687,158.152 224.256,164.046 224.256,171.602C224.256,180.065 220.176,187.168 212.015,192.609C203.552,198.049 192.217,200.921 177.861,200.921C173.629,200.921 166.375,200.467 156.098,199.863L155.947,210.29C166.224,210.895 173.629,211.197 177.861,211.197C195.391,211.197 209.295,207.721 219.571,200.921C230.15,193.818 235.591,183.995 235.591,171.602C235.591,160.721 231.964,152.409 224.709,146.667C217.455,140.622 207.632,137.599 195.24,137.599C184.51,137.599 173.025,141.226 160.632,148.782C176.198,136.088 195.391,120.069 218.362,100.422L212.015,92.413Z" fill="currentColor" />
    </g>
</svg>
