<svg width="100%" height="100%" viewBox="0 0 300 300" version="1.1" xmlns="http://www.w3.org/2000/svg" xmlns:xlink="http://www.w3.org/1999/xlink" xml:space="preserve" xmlns:serif="http://www.serif.com/" style="fill-rule:evenodd;clip-rule:evenodd;stroke-linejoin:round;stroke-miterlimit:2;">
    <g transform="matrix(2.15944,0,0,2.15944,-260.043,-168.93)">
        <path d="M212.161,114.757C197.86,114.757 183.008,120.67 167.882,132.771C167.882,130.158 167.882,127.546 168.02,124.933L172.695,114.895L168.432,111.044C168.57,101.693 168.707,94.13 168.982,88.63L158.944,88.492L158.394,111.457L133.367,113.107L133.917,122.595L158.119,121.083L157.569,141.572C148.905,149.548 138.867,160.549 127.316,174.3L135.017,180.9C143.13,171.274 150.555,163.024 157.156,156.423C156.744,174.025 156.606,190.801 156.606,206.89L166.644,206.89C166.644,190.939 166.919,170.862 167.469,146.522C169.12,145.01 170.632,143.635 172.145,142.534C186.721,130.571 200.06,124.658 212.161,124.658C221.512,124.658 229.075,127.821 234.575,134.284C239.526,140.334 242.001,147.897 242.001,156.973C242.001,167.287 238.013,175.675 230.037,182.275C221.649,188.876 209.548,193.139 193.597,194.789L197.31,204.277C215.324,202.215 229.075,197.127 238.563,188.876C247.776,180.625 252.452,170.037 252.452,156.973C252.452,145.285 249.014,135.521 242.276,127.821C234.85,119.02 224.812,114.757 212.161,114.757Z" fill="currentColor" />
    </g>
</svg>
