<svg width="100%" height="100%" viewBox="0 0 300 300" version="1.1" xmlns="http://www.w3.org/2000/svg" xmlns:xlink="http://www.w3.org/1999/xlink" xml:space="preserve" xmlns:serif="http://www.serif.com/" style="fill-rule:evenodd;clip-rule:evenodd;stroke-linejoin:round;stroke-miterlimit:2;">
    <g transform="matrix(2.47718,0,0,2.47718,-268.906,-199.413)">
        <path d="M211.508,99.724C199.7,101.066 184.269,101.736 164.946,102.005C166.959,97.577 168.972,92.88 170.984,88.05L161.994,84.561C159.579,90.599 157.029,96.369 154.346,102.005C143.879,102.005 132.742,101.871 121.202,101.871L121.068,110.995C132.876,111.129 142.403,111.264 149.381,111.264C147.502,114.216 145.758,117.168 143.879,120.12C137.572,129.513 129.119,139.979 118.652,151.519L125.63,157.96C140.122,141.053 153.138,132.599 164.678,132.599C169.508,132.599 172.997,135.014 175.144,139.979C170.85,141.724 166.959,143.468 163.47,145.347C146.294,154.069 137.841,163.864 137.841,174.733C137.841,182.918 141.732,188.957 149.515,192.714C156.224,195.934 166.02,197.545 178.901,197.545C190.978,197.545 202.786,196.605 214.46,194.727L213.521,185.334C202.518,187.212 190.978,188.286 178.901,188.286C169.24,188.286 161.994,187.347 157.029,185.602C150.857,183.321 147.905,179.698 147.905,174.733C147.905,166.682 156.224,158.765 172.863,151.117C174.205,150.446 175.547,149.775 177.023,149.238C177.023,150.58 177.157,152.056 177.157,153.666L177.157,175.404L186.684,175.404L186.684,152.19C186.684,149.775 186.55,147.628 186.282,145.615C196.077,141.992 207.214,138.772 219.559,135.954L216.742,126.829C204.397,129.915 193.528,133.136 184.135,136.49C183.464,134.88 182.659,133.404 181.853,132.062C178.365,126.963 173.131,124.414 166.288,124.414C159.176,124.414 152.064,127.097 144.953,132.733C150.186,126.829 155.285,119.717 160.115,111.264C181.317,110.995 198.627,110.19 212.179,108.714L211.508,99.724Z" fill="currentColor" />
    </g>
</svg>
