<svg width="100%" height="100%" viewBox="0 0 300 300" version="1.1" xmlns="http://www.w3.org/2000/svg" xmlns:xlink="http://www.w3.org/1999/xlink" xml:space="preserve" xmlns:serif="http://www.serif.com/" style="fill-rule:evenodd;clip-rule:evenodd;stroke-linejoin:round;stroke-miterlimit:2;">
    <g transform="matrix(1.83845,0,0,1.83845,-224.213,-153.473)">
        <path d="M184.13,92.277C166.93,131.998 148.31,178.813 128.45,232.543L141.927,236.267L156.999,195.836C160.014,187.502 164.979,179.877 171.718,172.784C178.988,164.981 185.726,161.08 191.933,161.08C199.203,161.08 202.927,166.4 202.927,177.217C202.927,179.167 202.572,184.665 202.218,193.886C201.863,202.929 201.686,208.249 201.686,209.668C201.686,218.002 204.346,224.74 210.02,230.06C215.695,235.203 222.965,237.863 231.831,237.863C244.776,237.863 254.884,232.011 262.154,220.307C268.715,209.845 274.212,192.29 278.646,167.818L265.169,165.159C261.622,187.502 257.012,203.461 251.337,212.859C246.372,221.016 239.811,225.095 231.831,225.095C226.866,225.095 222.788,223.676 219.596,220.839C216.404,218.002 214.985,214.278 214.985,209.668C214.985,208.249 215.163,202.929 215.695,193.886C216.049,184.665 216.227,179.167 216.227,177.217C216.227,169.414 214.453,162.853 211.261,157.711C207.183,151.682 201.331,148.667 193.706,148.667C188.741,148.667 183.953,150.263 179.165,153.81C174.909,156.647 170.831,160.725 167.284,165.691C176.683,143.347 186.613,120.65 197.253,97.242L184.13,92.277Z" fill="currentColor" />
    </g>
</svg>
