<svg width="25" height="25" viewBox="0 0 25 25" fill="none" xmlns="http://www.w3.org/2000/svg">
<path d="M12.5 2.5C6.97656 2.5 2.5 6.97656 2.5 12.5C2.5 18.0234 6.97656 22.5 12.5 22.5C15.1875 22.5 17.6289 21.4375 19.4258 19.7109C19.7109 19.4375 19.793 19.0117 19.6328 18.6523C19.4727 18.293 19.0977 18.0703 18.7031 18.1016C18.5117 18.1172 18.3203 18.125 18.125 18.125C14.1562 18.125 10.9375 14.9062 10.9375 10.9375C10.9375 8.12109 12.5586 5.67969 14.9258 4.5C15.2812 4.32422 15.4844 3.94141 15.4375 3.54688C15.3906 3.15234 15.1016 2.83203 14.7148 2.74609C14 2.58594 13.2578 2.5 12.5 2.5Z" fill="#1E1E1E"/>
</svg>
