<svg width="40" height="35" viewBox="0 0 40 35" fill="none" xmlns="http://www.w3.org/2000/svg">
<path d="M22.2939 0.5C23.2647 0.5 24.1919 0.885445 24.8799 1.5752L37.9268 14.6562C38.6148 15.346 39 16.2756 39 17.25C39 18.2244 38.6148 19.154 37.9268 19.8438L28.249 29.5469L27.3984 30.4004H37.2061C38.1976 30.4005 39 31.203 39 32.2002C38.9999 33.1973 38.1975 33.9999 37.2061 34H13.2969C12.2778 34 11.2992 33.6224 10.5498 32.9424L10.4033 32.8027L2.07324 24.4443V24.4434L1.94727 24.3115C1.33814 23.6375 1 22.763 1 21.8496C1.0001 20.8754 1.38531 19.9456 2.07324 19.2559L19.709 1.5752C20.3969 0.885486 21.3233 0.500046 22.2939 0.5ZM14.0039 12.3828L4.9209 21.4893L4.56836 21.8428L4.9209 22.1963L12.5977 29.8926L12.0918 30.4004H22.3223L22.4688 30.2529L27.1504 25.5596L27.5029 25.207L27.1504 24.8535L14.7119 12.3828L14.3574 12.0283L14.0039 12.3828Z" fill="#DD3B3B" stroke="#DD3B3B"/>
</svg>
