<svg width="50" height="55" viewBox="0 0 50 55" fill="none" xmlns="http://www.w3.org/2000/svg">
<path d="M45.957 12.7447C47.1777 11.4024 47.1777 9.22235 45.957 7.87998L39.707 1.00707C38.8086 0.0190916 37.4707 -0.27086 36.2988 0.266087C35.127 0.803033 34.375 2.05949 34.375 3.44481V6.88126H18.75C8.39844 6.88126 0 16.1167 0 27.5C0 29.4008 1.39648 30.9365 3.125 30.9365C4.85352 30.9365 6.25 29.4008 6.25 27.5C6.25 19.9076 11.8457 13.7542 18.75 13.7542H34.375V17.1906C34.375 18.576 35.1367 19.8324 36.3086 20.3694C37.4805 20.9063 38.8184 20.6056 39.7168 19.6284L45.9668 12.7555L45.957 12.7447ZM4.04297 42.2553C2.82227 43.5977 2.82227 45.7777 4.04297 47.12L10.293 53.9929C11.1914 54.9809 12.5293 55.2709 13.7012 54.7339C14.873 54.197 15.625 52.9405 15.625 51.5552V48.1187H31.25C41.6016 48.1187 50 38.8833 50 27.5C50 25.5992 48.6035 24.0635 46.875 24.0635C45.1465 24.0635 43.75 25.5992 43.75 27.5C43.75 35.0924 38.1543 41.2458 31.25 41.2458H15.625V37.8094C15.625 36.424 14.8633 35.1676 13.6914 34.6306C12.5195 34.0937 11.1816 34.3944 10.2832 35.3716L4.0332 42.2445L4.04297 42.2553Z" fill="#DD3B3B"/>
</svg>
