<svg width="24" height="24" viewBox="0 0 24 24" fill="none" xmlns="http://www.w3.org/2000/svg">
<path d="M8.72257 2.10375C8.47132 1.93875 8.15632 1.90875 7.87882 2.02125C7.60132 2.13375 7.40257 2.38125 7.34632 2.67375L6.56257 6.5475L2.68882 7.3275C2.39632 7.3875 2.14882 7.59 2.03632 7.86375C1.92382 8.1375 1.95382 8.45625 2.11882 8.7075L4.30132 12L2.11882 15.2925C1.95382 15.5437 1.92382 15.8587 2.03632 16.1362C2.14882 16.4137 2.39632 16.6162 2.68882 16.6725L6.56257 17.4525L7.34632 21.3262C7.40632 21.6187 7.60882 21.8662 7.88257 21.9787C8.15632 22.0912 8.47507 22.0613 8.72632 21.8962L12.0188 19.7137L15.3113 21.8962C15.5626 22.0613 15.8776 22.0912 16.1551 21.9787C16.4326 21.8662 16.6351 21.6187 16.6913 21.3262L17.4751 17.4562L21.3451 16.6725C21.6376 16.6125 21.8851 16.41 21.9976 16.1362C22.1101 15.8625 22.0801 15.5437 21.9151 15.2925L19.7326 12L21.9151 8.7075C22.0801 8.45625 22.1101 8.14125 21.9976 7.86375C21.8851 7.58625 21.6376 7.38375 21.3451 7.3275L17.4676 6.5475L16.6876 2.67375C16.6276 2.38125 16.4251 2.1375 16.1476 2.02125C15.8701 1.905 15.5551 1.93875 15.3038 2.10375L12.0151 4.28625L8.72257 2.10375ZM8.20882 7.48875L8.84632 4.3425L11.5201 6.11625C11.8201 6.315 12.2138 6.315 12.5138 6.11625L15.1876 4.3425L15.8251 7.48875C15.8963 7.845 16.1738 8.11875 16.5301 8.19375L19.6763 8.83125L17.9026 11.505C17.7038 11.805 17.7038 12.1987 17.9026 12.4987L19.6763 15.1725L16.5301 15.81C16.1738 15.8812 15.8963 16.1587 15.8251 16.515L15.1876 19.6612L12.5138 17.8875C12.2138 17.6887 11.8201 17.6887 11.5201 17.8875L8.84632 19.6612L8.20882 16.515C8.13757 16.1587 7.86007 15.8812 7.50382 15.81L4.35757 15.1725L6.13132 12.4987C6.33007 12.1987 6.33007 11.805 6.13132 11.505L4.35757 8.83125L7.50382 8.19375C7.86007 8.1225 8.13382 7.845 8.20882 7.48875ZM10.1851 12C10.1851 10.9987 10.9988 10.185 12.0001 10.185C13.0013 10.185 13.8151 10.9987 13.8151 12C13.8151 13.0012 13.0013 13.815 12.0001 13.815C10.9988 13.815 10.1851 13.0012 10.1851 12ZM15.6151 12C15.6151 10.005 13.9951 8.385 12.0001 8.385C10.0051 8.385 8.38507 10.005 8.38507 12C8.38507 13.995 10.0051 15.615 12.0001 15.615C13.9951 15.615 15.6151 13.995 15.6151 12Z" fill="#1E1E1E"/>
</svg>
