<svg width="891" height="474" viewBox="0 0 891 474" fill="none" xmlns="http://www.w3.org/2000/svg">
<path d="M425.672 446.118L890.378 446.118" stroke="white" stroke-width="2"/>
<path d="M723.297 455.413C702.59 461.462 680.686 464.707 658.025 464.707C635.364 464.707 613.46 461.462 592.754 455.413H723.297ZM791.049 422.884C783.816 427.943 776.282 432.6 768.479 436.824H547.57C539.767 432.6 532.234 427.943 525.002 422.884H791.049ZM843.923 371.766C839.066 378.231 833.881 384.436 828.39 390.354H487.66C482.169 384.436 476.983 378.231 472.127 371.766H843.923ZM658.025 0C786.35 9.07142e-05 890.379 104.028 890.379 232.354C890.379 269.039 881.876 303.738 866.735 334.589H449.315C434.174 303.738 425.672 269.039 425.672 232.354C425.672 104.028 529.7 0 658.025 0Z" fill="#DD3B3B"/>
<path d="M1.39412 250.941C0.464707 250.941 0 250.477 0 249.547L0.557648 57.9951C0.557648 57.2516 0.929414 56.8798 1.67294 56.8798H90.8966C91.826 56.8798 92.2907 57.2516 92.2907 57.9951V89.5022C92.2907 90.2458 91.919 90.6175 91.1755 90.6175H34.0165V133.835H91.1755C91.919 133.835 92.2907 134.3 92.2907 135.229L92.5696 166.736C92.5696 167.48 92.1049 167.852 91.1755 167.852H34.0165V249.547C34.0165 250.477 33.5518 250.941 32.6224 250.941H1.39412Z" fill="black"/>
<path d="M121.195 250.941C120.451 250.941 120.079 250.477 120.079 249.547L120.358 58.2739C120.358 57.3445 120.823 56.8798 121.752 56.8798H152.702C153.631 56.8798 154.096 57.3445 154.096 58.2739L153.817 216.646H211.255C212.184 216.646 212.649 217.111 212.649 218.04V249.547C212.649 250.477 212.184 250.941 211.255 250.941H121.195Z" fill="black"/>
<path d="M221.421 249.547L255.995 57.9951C256.181 57.2516 256.646 56.8798 257.389 56.8798H297.819C298.562 56.8798 299.027 57.2516 299.213 57.9951L332.393 249.547C332.579 250.477 332.207 250.941 331.278 250.941H300.328C299.585 250.941 299.12 250.477 298.934 249.547L295.867 229.193H257.947L254.88 249.547C254.694 250.477 254.229 250.941 253.486 250.941H222.536C221.793 250.941 221.421 250.477 221.421 249.547ZM263.524 199.359H290.291L278.859 121.009L277.186 110.693L276.071 121.009L263.524 199.359Z" fill="black"/>
<path d="M391.846 253.73C381.808 253.73 372.607 251.22 364.242 246.201C356.063 240.997 349.464 234.212 344.446 225.847C339.613 217.297 337.196 207.91 337.196 197.686V184.86C337.196 183.931 337.661 183.466 338.59 183.466H369.819C370.562 183.466 370.934 183.931 370.934 184.86V197.686C370.934 203.82 372.979 209.118 377.068 213.579C381.157 217.854 386.083 219.992 391.846 219.992C397.608 219.992 402.534 217.761 406.623 213.3C410.713 208.839 412.758 203.634 412.758 197.686C412.758 190.808 408.296 184.86 399.374 179.841C396.4 178.168 391.753 175.566 385.433 172.034C379.113 168.502 373.165 165.156 367.588 161.996C357.365 156.048 349.743 148.613 344.724 139.691C339.892 130.582 337.475 120.359 337.475 109.02C337.475 98.6105 339.984 89.3164 345.003 81.1375C350.022 72.7728 356.621 66.174 364.8 61.341C373.165 56.5081 382.18 54.0916 391.846 54.0916C401.698 54.0916 410.713 56.601 418.892 61.6198C427.256 66.4528 433.855 73.0516 438.688 81.4163C443.707 89.5952 446.216 98.7964 446.216 109.02V131.883C446.216 132.627 445.845 132.999 445.101 132.999H413.873C413.129 132.999 412.758 132.627 412.758 131.883L412.479 109.02C412.479 102.514 410.434 97.2164 406.345 93.1269C402.255 89.0375 397.422 86.9928 391.846 86.9928C386.083 86.9928 381.157 89.2234 377.068 93.6846C372.979 97.9599 370.934 103.072 370.934 109.02C370.934 115.154 372.235 120.266 374.837 124.355C377.44 128.445 382.18 132.348 389.057 136.066C389.987 136.623 391.753 137.646 394.355 139.133C397.143 140.434 400.118 142.014 403.278 143.873C406.438 145.546 409.226 147.033 411.642 148.334C414.245 149.635 415.825 150.472 416.382 150.844C425.676 156.048 433.019 162.461 438.409 170.082C443.8 177.518 446.495 186.719 446.495 197.686C446.495 208.281 443.986 217.854 438.967 226.405C434.134 234.77 427.535 241.461 419.171 246.48C410.992 251.313 401.883 253.73 391.846 253.73Z" fill="black"/>
<path d="M467.002 250.941C466.258 250.941 465.887 250.477 465.887 249.547L466.165 57.9951C466.165 57.2516 466.63 56.8798 467.56 56.8798H498.509C499.438 56.8798 499.903 57.2516 499.903 57.9951L499.624 133.835H541.448V57.9951C541.448 57.2516 541.82 56.8798 542.563 56.8798H573.513C574.442 56.8798 574.907 57.2516 574.907 57.9951L575.464 249.547C575.464 250.477 575 250.941 574.07 250.941H542.842C541.913 250.941 541.448 250.477 541.448 249.547V167.573H499.624V249.547C499.624 250.477 499.253 250.941 498.509 250.941H467.002Z" fill="black"/>
<path d="M1.1153 474.001C0.371765 474.001 0 473.536 0 472.606L0.557648 281.333C0.557648 280.404 0.929414 279.939 1.67294 279.939H32.9012C33.6448 279.939 34.0165 280.404 34.0165 281.333V347.414L77.7919 281.054C78.3495 280.311 79.0001 279.939 79.7437 279.939H111.808C112.552 279.939 112.738 280.311 112.366 281.054L64.1295 358.01L118.221 472.885C118.593 473.629 118.128 474.001 116.827 474.001H82.8107C81.8813 474.001 81.3237 473.629 81.1378 472.885L43.4965 390.911L33.7377 406.246V472.606C33.7377 473.536 33.3659 474.001 32.6224 474.001H1.1153Z" fill="black"/>
<path d="M121.219 472.606L155.793 281.054C155.979 280.311 156.443 279.939 157.187 279.939H197.617C198.36 279.939 198.825 280.311 199.011 281.054L232.191 472.606C232.377 473.536 232.005 474.001 231.075 474.001H200.126C199.382 474.001 198.918 473.536 198.732 472.606L195.665 452.252H157.745L154.678 472.606C154.492 473.536 154.027 474.001 153.283 474.001H122.334C121.59 474.001 121.219 473.536 121.219 472.606ZM163.321 422.418H190.088L178.656 344.069L176.984 333.752L175.868 344.069L163.321 422.418Z" fill="black"/>
<path d="M264.229 474.001C263.486 474.001 263.114 473.536 263.114 472.606V313.677H226.867C225.937 313.677 225.473 313.212 225.473 312.283L225.752 281.054C225.752 280.311 226.123 279.939 226.867 279.939H332.82C333.749 279.939 334.214 280.311 334.214 281.054V312.283C334.214 313.212 333.842 313.677 333.099 313.677H296.573L296.852 472.606C296.852 473.536 296.48 474.001 295.736 474.001H264.229Z" fill="black"/>
<path d="M325.708 472.606L360.282 281.054C360.468 280.311 360.933 279.939 361.676 279.939H402.106C402.849 279.939 403.314 280.311 403.5 281.054L436.68 472.606C436.866 473.536 436.494 474.001 435.564 474.001H404.615C403.871 474.001 403.407 473.536 403.221 472.606L400.154 452.252H362.234L359.167 472.606C358.981 473.536 358.516 474.001 357.773 474.001H326.823C326.08 474.001 325.708 473.536 325.708 472.606ZM367.81 422.418H394.577L383.146 344.069L381.473 333.752L380.357 344.069L367.81 422.418Z" fill="black"/>
</svg>
