<svg width="38" height="38" viewBox="0 0 38 38" fill="none" xmlns="http://www.w3.org/2000/svg">
<path d="M24.9277 5.49219L22.2969 8.12305L30.3769 16.2031L33.0078 13.5723C33.8047 12.7813 34.25 11.7031 34.25 10.5781C34.25 9.45313 33.8047 8.375 33.0078 7.58398L30.916 5.49219C30.125 4.69531 29.0469 4.25 27.9219 4.25C26.7969 4.25 25.7187 4.69531 24.9277 5.49219ZM20.3105 10.1094L7.70116 22.7129C7.07421 23.3398 6.61718 24.125 6.37694 24.9805L4.30272 32.4687C4.16796 32.9551 4.30272 33.4824 4.666 33.8398C5.02929 34.1973 5.55077 34.3379 6.0371 34.2031L13.5254 32.123C14.3808 31.8828 15.1601 31.4316 15.793 30.7988L28.3906 18.1895L20.3105 10.1094Z" fill="#DD3B3B"/>
</svg>
