<svg width="31" height="33" viewBox="0 0 31 33" fill="none" xmlns="http://www.w3.org/2000/svg">
<path d="M11.4944 30.786C11.6725 31.6647 12.4503 32.3 13.3528 32.3H16.9035C17.806 32.3 18.5838 31.6647 18.7619 30.786L19.6228 26.6297C20.46 26.2735 21.2438 25.8163 21.9563 25.276L25.9819 26.6119C26.8369 26.8969 27.775 26.5407 28.2263 25.7569L30.0016 22.6813C30.4528 21.8975 30.2925 20.9119 29.6156 20.3122L26.451 17.4979C26.5044 17.0585 26.5281 16.6072 26.5281 16.15C26.5281 15.6929 26.4985 15.2416 26.451 14.8022L29.6216 11.9819C30.2985 11.3822 30.4528 10.3907 30.0075 9.61286L28.2322 6.53724C27.781 5.75942 26.8428 5.39724 25.9878 5.68224L21.9622 7.01818C21.2438 6.47786 20.46 6.02661 19.6288 5.66442L18.7738 1.51411C18.5897 0.629425 17.8119 4.95911e-05 16.9153 4.95911e-05H13.3647C12.4622 4.95911e-05 11.6844 0.635363 11.5063 1.51411L10.6513 5.66442C9.81408 6.02067 9.03627 6.47786 8.31783 7.01818L4.2744 5.68224C3.4194 5.39724 2.48127 5.75349 2.03002 6.53724L0.254709 9.61286C-0.196541 10.3966 -0.0362285 11.3822 0.640647 11.9819L3.81127 14.8022C3.75783 15.2416 3.73408 15.6929 3.73408 16.15C3.73408 16.6072 3.76377 17.0585 3.81127 17.4979L0.640647 20.3182C-0.0362285 20.9179 -0.190603 21.9094 0.254709 22.6872L2.03002 25.7629C2.48127 26.5466 3.4194 26.9029 4.2744 26.6179L8.30002 25.2819C9.01846 25.8222 9.80221 26.2735 10.6335 26.6357L11.4944 30.786ZM15.1281 11.4C17.7525 11.4119 19.8722 13.5435 19.8603 16.1679C19.8485 18.7922 17.7169 20.9119 15.0925 20.9C12.4681 20.8882 10.3485 18.7566 10.3603 16.1322C10.3722 13.5079 12.5038 11.3882 15.1281 11.4Z" fill="black"/>
</svg>
