<svg width="64" height="62" viewBox="0 0 64 62" fill="none" xmlns="http://www.w3.org/2000/svg">
<path d="M52.3467 0.93198C51.2784 -0.188352 49.7122 0.0250448 48.8409 1.39878C47.9696 2.77252 48.1356 4.78645 49.2039 5.90679C54.8257 11.7752 58.4042 20.7112 58.4042 30.7408C58.4042 40.7704 54.8257 49.7064 49.2039 55.5882C48.1356 56.7085 47.98 58.7224 48.8409 60.0961C49.7018 61.4699 51.2784 61.6699 52.3467 60.563C59.0784 53.5075 63.3829 42.771 63.3829 30.7408C63.3829 18.7106 59.0784 7.96073 52.3467 0.93198ZM46.0715 10.8683C45.0031 9.74792 43.4369 9.96132 42.5656 11.3351C41.6944 12.7088 41.8603 14.7227 42.9287 15.8431C46.2997 19.3641 48.4468 24.7257 48.4468 30.7408C48.4468 36.7559 46.2997 42.1175 42.9287 45.6519C41.8603 46.7722 41.7047 48.7861 42.5656 50.1599C43.4265 51.5336 45.0031 51.7337 46.0715 50.6267C50.5523 45.932 53.4255 38.7698 53.4255 30.7541C53.4255 22.7384 50.5523 15.5763 46.0715 10.8816V10.8683ZM39.7962 20.8045C38.7279 19.6842 37.1616 19.8976 36.2904 21.2713C35.4191 22.6451 35.585 24.659 36.6534 25.7793C37.7736 26.953 38.4893 28.7402 38.4893 30.7408C38.4893 32.7414 37.7736 34.5286 36.6534 35.7156C35.585 36.8359 35.4295 38.8499 36.2904 40.2236C37.1513 41.5973 38.7279 41.7974 39.7962 40.6904C42.0263 38.3297 43.468 34.7553 43.468 30.7408C43.468 26.7263 42.0263 23.1519 39.7962 20.8045ZM5.29782 43.5446H10.2765L24.1858 59.4426C24.8497 60.2029 25.7002 60.6163 26.5819 60.6163C28.5733 60.6163 30.1914 58.5357 30.1914 55.9749V5.50667C30.1914 2.94591 28.5733 0.865293 26.5819 0.865293C25.7002 0.865293 24.8497 1.27875 24.1858 2.03897L10.2765 17.937H5.29782C2.54914 17.937 0.319092 20.8045 0.319092 24.3389V37.1427C0.319092 40.6771 2.54914 43.5446 5.29782 43.5446Z" fill="#DD3B3B"/>
</svg>
