<svg width="32" height="35" viewBox="0 0 32 35" fill="none" xmlns="http://www.w3.org/2000/svg">
<path d="M0 5.625V0.878906C0 0.39375 0.4 0 0.892857 0C1.05714 0 1.21429 0.0421874 1.35714 0.126562L4.14286 1.77188C5.92143 2.81953 7.95 3.375 10.0214 3.375H21.9786C24.05 3.375 26.0857 2.81953 27.8571 1.77188L30.6429 0.126562C30.7786 0.0421874 30.9429 0 31.1 0C31.5929 0 31.9929 0.39375 31.9929 0.878906L32 5.625C32 8.10703 29.95 10.125 27.4286 10.125V14.625H28.5714C29.8357 14.625 30.8571 15.6305 30.8571 16.875C30.8571 18.1195 29.8357 19.125 28.5714 19.125H27.4286V32.625C27.4286 33.8695 26.4071 34.875 25.1429 34.875C23.8786 34.875 22.8571 33.8695 22.8571 32.625V19.125H9.14286V32.625C9.14286 33.8695 8.12143 34.875 6.85714 34.875C5.59286 34.875 4.57143 33.8695 4.57143 32.625V19.125H3.42857C2.16429 19.125 1.14286 18.1195 1.14286 16.875C1.14286 15.6305 2.16429 14.625 3.42857 14.625H4.57143V10.125C2.05 10.125 0 8.10703 0 5.625ZM9.14286 14.625H13.7143V10.125H9.14286V14.625ZM18.2857 14.625H22.8571V10.125H18.2857V14.625Z" fill="#DD3B3B"/>
</svg>
